<?xml version="1.0" encoding="UTF-8"?>
<svg version="1.1" xmlns="http://www.w3.org/2000/svg" width="620" height="619">
<path d="M0 0 C3.8346153 0.00849817 7.667728 -0.02036887 11.50219727 -0.05200195 C55.06600896 -0.17538059 99.10961602 9.99348243 138.16821289 29.44604492 C139.08119141 29.89705566 139.99416992 30.34806641 140.93481445 30.81274414 C165.4163297 42.99574288 188.96368862 57.49846014 208.93774414 76.35620117 C210.8988353 78.19365086 212.90024961 79.95183127 214.93383789 81.70776367 C225.62455942 91.03191809 235.45575979 101.25758384 244.16821289 112.44604492 C245.1172628 113.60847069 246.06928248 114.76847584 247.02368164 115.92651367 C258.13840324 129.46930336 267.30594999 143.86780802 275.87182617 159.13647461 C276.69258592 160.59869442 277.51845621 162.0580673 278.35131836 163.51342773 C295.4154678 193.40715244 305.19093775 226.72994708 311.16821289 260.44604492 C311.34755371 261.41074707 311.52689453 262.37544922 311.71166992 263.36938477 C317.17813592 293.88279624 316.8292136 328.99464216 311.16821289 359.44604492 C310.96953613 360.56672363 310.77085937 361.68740234 310.56616211 362.84204102 C305.96048049 388.38891173 298.65482229 412.70647589 288.16821289 436.44604492 C287.81678223 437.25058105 287.46535156 438.05511719 287.10327148 438.8840332 C276.16736487 463.6948395 261.30528068 486.49671847 244.16821289 507.44604492 C243.72461426 507.99405762 243.28101563 508.54207031 242.82397461 509.10668945 C230.79224813 523.8945055 217.27081138 537.79340104 202.16821289 549.44604492 C200.45828046 550.8816424 198.75001478 552.31922691 197.04321289 553.75854492 C159.77877481 584.08517507 115.26588574 603.6736464 68.60571289 614.19604492 C67.79400635 614.38271729 66.9822998 614.56938965 66.14599609 614.76171875 C46.9867081 618.85611798 27.88463133 619.95780018 8.33642578 619.89208984 C4.50181048 619.88359168 0.66869778 619.91245871 -3.16577148 619.9440918 C-46.72958317 620.06747043 -90.77319024 609.89860741 -129.83178711 590.44604492 C-130.74476563 589.99503418 -131.65774414 589.54402344 -132.59838867 589.0793457 C-157.07990392 576.89634696 -180.62726284 562.39362971 -200.60131836 543.53588867 C-202.56240952 541.69843899 -204.56382383 539.94025857 -206.59741211 538.18432617 C-217.28813364 528.86017176 -227.11933401 518.634506 -235.83178711 507.44604492 C-236.78083702 506.28361916 -237.7328567 505.12361401 -238.68725586 503.96557617 C-249.80197746 490.42278649 -258.9695242 476.02428182 -267.53540039 460.75561523 C-268.35616014 459.29339542 -269.18203043 457.83402254 -270.01489258 456.37866211 C-287.07904202 426.48493741 -296.85451196 393.16214276 -302.83178711 359.44604492 C-303.01112793 358.48134277 -303.19046875 357.51664062 -303.37524414 356.52270508 C-308.84171014 326.0092936 -308.49278782 290.89744769 -302.83178711 260.44604492 C-302.53377197 258.76502686 -302.53377197 258.76502686 -302.22973633 257.05004883 C-297.62405471 231.50317811 -290.3183965 207.18561395 -279.83178711 183.44604492 C-279.48035645 182.64150879 -279.12892578 181.83697266 -278.7668457 181.00805664 C-267.83093909 156.19725034 -252.9688549 133.39537137 -235.83178711 112.44604492 C-235.16638916 111.62402588 -235.16638916 111.62402588 -234.48754883 110.78540039 C-222.45582235 95.99758434 -208.9343856 82.09868881 -193.83178711 70.44604492 C-192.12185468 69.01044745 -190.413589 67.57286293 -188.70678711 66.13354492 C-151.44234903 35.80691478 -106.92945996 16.21844344 -60.26928711 5.69604492 C-59.45758057 5.50937256 -58.64587402 5.3227002 -57.80957031 5.13037109 C-38.65028232 1.03597186 -19.54820555 -0.06571034 0 0 Z " fill="#267448" transform="translate(305.831787109375,-0.446044921875)"/>
<path d="M0 0 C2.59715591 0.03695792 5.19288885 0.04101407 7.7902832 0.04052734 C43.08883193 0.18956631 74.47959635 15.67542389 99.32348633 40.34912109 C109.13598633 50.48673405 109.13598633 50.48673405 109.13598633 53.41162109 C113.47207832 51.1627066 115.94574971 48.48416787 118.94848633 44.66162109 C122.97867633 39.67583439 127.10235473 35.3809493 132.13598633 31.41162109 C133.63838867 30.20699219 133.63838867 30.20699219 135.17114258 28.97802734 C150.47599127 16.84987074 167.20681357 8.26651766 186.13598633 3.41162109 C187.12880615 3.15050537 188.12162598 2.88938965 189.14453125 2.62036133 C198.6319838 0.33552814 207.62886504 -0.10619899 217.32348633 -0.02587891 C218.0918985 -0.02316986 218.86031067 -0.02046082 219.65200806 -0.01766968 C231.58254336 0.04604873 242.65670663 0.98080494 254.13598633 4.41162109 C255.5104071 4.77967637 256.88541221 5.14555631 258.26098633 5.50927734 C287.52764595 13.59620943 315.97568103 34.16919433 331.12866211 60.65136719 C332.1797974 62.48817898 333.26285149 64.30345347 334.35083008 66.11865234 C339.22474489 74.33706987 342.52616434 82.19025006 345.13598633 91.41162109 C345.62687744 92.57419434 345.62687744 92.57419434 346.12768555 93.76025391 C355.29325574 117.8614869 352.7954187 148.12309335 346.13598633 172.41162109 C345.82532227 173.57951172 345.5146582 174.74740234 345.19458008 175.95068359 C338.61322749 197.84917518 324.28482476 216.88168241 310.13598633 234.41162109 C309.26103516 235.50506836 309.26103516 235.50506836 308.3684082 236.62060547 C301.19847566 245.56900172 293.77169415 254.18471864 285.859375 262.48461914 C283.53994805 264.92424178 281.23472153 267.37527704 278.94946289 269.84692383 C268.79780415 280.80992927 258.30750071 291.42780462 247.74267578 301.99023438 C245.27076762 304.46203872 242.8059436 306.94079054 240.34257793 309.42110443 C237.96957093 311.80781321 235.58947763 314.18740836 233.21020508 316.56787109 C232.32701096 317.45825073 231.44381683 318.34863037 230.53385925 319.26599121 C229.72153336 320.07524048 228.90920746 320.88448975 228.07226562 321.71826172 C227.35805954 322.43389282 226.64385345 323.14952393 225.90800476 323.88684082 C224.13598633 325.41162109 224.13598633 325.41162109 222.13598633 325.41162109 C221.80598633 326.40162109 221.47598633 327.39162109 221.13598633 328.41162109 C219.81567383 329.74365234 219.81567383 329.74365234 218.01098633 331.22412109 C213.85062134 334.75073872 209.86125654 338.42993977 205.88598633 342.16162109 C197.39761112 350.11227595 188.90970374 358.06247405 180.11645508 365.67724609 C177.82465478 367.68426648 175.57601881 369.73564961 173.32348633 371.78662109 C168.93147953 375.75424687 164.39291163 379.50222647 159.79223633 383.22412109 C157.32915653 385.25253975 154.94321881 387.3380242 152.57348633 389.47412109 C148.73538081 392.92364399 144.76450605 396.15970073 140.71801758 399.36083984 C138.10610274 401.43535617 135.52490887 403.54322923 132.94848633 405.66162109 C132.04614258 406.39638672 131.14379883 407.13115234 130.21411133 407.88818359 C127.87633677 409.80468406 125.55783185 411.73848531 123.24536133 413.68505859 C121.8967203 414.80262911 120.54776423 415.91981957 119.19848633 417.03662109 C118.55951416 417.5822168 117.92054199 418.1278125 117.26220703 418.68994141 C115.42114258 420.20068359 115.42114258 420.20068359 112.13598633 422.41162109 C107.58983986 421.9387424 104.78016292 418.7751049 101.51098633 415.84912109 C100.24909709 414.7423608 98.9860723 413.63689391 97.72192383 412.53271484 C97.10671875 411.99372559 96.49151367 411.45473633 95.85766602 410.89941406 C93.66622354 409.00567464 91.41324516 407.20089589 89.13598633 405.41162109 C84.43750669 401.70067084 79.90803397 397.81199067 75.37597656 393.90161133 C71.85827004 390.87180017 68.30736863 387.89559724 64.69848633 384.97412109 C54.73594255 376.86949664 45.07484275 368.40900355 35.69897461 359.63305664 C32.91997482 357.03509466 30.10152392 354.49684127 27.22973633 352.00146484 C23.25635852 348.54085704 19.40351193 344.9670222 15.57348633 341.34912109 C14.3224308 340.17047392 13.07111479 338.99210319 11.81958008 337.81396484 C11.10656738 337.14107422 10.39355469 336.46818359 9.65893555 335.77490234 C7.79392456 334.02792089 5.92099433 332.29224236 4.03881836 330.56396484 C-6.57267172 320.78954995 -16.79467359 310.63584837 -26.98266602 300.42333984 C-29.40056981 297.99968281 -31.82301717 295.58062414 -34.24676514 293.16281319 C-36.60079245 290.81329354 -38.95097646 288.45994489 -41.30151367 286.10693359 C-42.15890137 285.25157013 -43.01628906 284.39620667 -43.8996582 283.5149231 C-48.20626458 279.19159753 -52.37191475 274.81091149 -56.32714844 270.16256714 C-57.9351958 268.3305235 -59.6239352 266.61805746 -61.36401367 264.91162109 C-65.07584483 261.24906204 -68.48178611 257.37835012 -71.86401367 253.41162109 C-72.27699707 252.92886719 -72.68998047 252.44611328 -73.11547852 251.94873047 C-95.89059109 225.30521615 -118.20045484 198.30245043 -125.86401367 163.41162109 C-126.030625 162.6563916 -126.19723633 161.90116211 -126.36889648 161.12304688 C-133.86349258 125.55086977 -127.65421252 88.61234118 -107.92651367 58.09912109 C-87.43349901 28.59555912 -58.52307675 7.95886226 -22.98852539 1.18798828 C-15.35290656 -0.09358306 -7.72281667 -0.11336515 0 0 Z " fill="#FBFCFC" transform="translate(199.864013671875,111.58837890625)"/>
<path d="M0 0 C46.53 0 93.06 0 141 0 C141 11.24716553 141 11.24716553 138.24609375 15.3828125 C137.64643799 16.31005127 137.04678223 17.23729004 136.42895508 18.19262695 C135.7717749 19.16031006 135.11459473 20.12799316 134.4375 21.125 C133.05405786 23.24568313 131.67126376 25.36678914 130.2890625 27.48828125 C129.22026855 29.10404053 129.22026855 29.10404053 128.12988281 30.75244141 C124.765621 35.88213084 121.54469987 41.09901669 118.3125 46.3125 C113.37435053 54.22514632 108.40344255 62.11646096 103.4128418 69.99609375 C99.22578487 76.6180724 95.10957214 83.28275884 90.99780273 89.95166016 C87.03729109 96.36077712 83.00043268 102.71793689 78.9375 109.0625 C73.95683627 116.84633067 69.13246731 124.70658712 64.41137695 132.65014648 C60.90583968 138.53379141 57.29658043 144.34364358 53.625 150.125 C46.40915193 160.61550321 46.40915193 160.61550321 41 172 C48.75583635 171.93258864 56.51118481 171.84262407 64.26660156 171.73754883 C66.900657 171.70445362 69.53478073 171.67637462 72.16894531 171.65356445 C75.97229912 171.61973447 79.77503569 171.56740396 83.578125 171.51171875 C84.74112122 171.50532883 85.90411743 171.4989389 87.10235596 171.49235535 C100.62083733 171.25349295 113.52389811 168.21286587 123.75 158.875 C131.37652459 150.53520332 135.06246203 140.71992528 138 130 C138.65485381 127.99610107 139.31816764 125.99488072 140 124 C142.97 124 145.94 124 149 124 C149.10434633 131.8583303 148.84584239 139.59047247 148.16015625 147.41796875 C148.07374374 148.44183182 147.98733124 149.46569489 147.89830017 150.52058411 C147.71665567 152.65757046 147.53251754 154.79434626 147.34594727 156.9309082 C147.05992968 160.21703097 146.78436143 163.50392075 146.50976562 166.79101562 C146.33134521 168.87505283 146.15233087 170.9590393 145.97265625 173.04296875 C145.89032242 174.02823044 145.80798859 175.01349213 145.72315979 176.02861023 C145.64315231 176.93077774 145.56314484 177.83294525 145.48071289 178.76245117 C145.41187393 179.55898605 145.34303497 180.35552094 145.27210999 181.17619324 C145 183 145 183 144 184 C142.05105041 184.09664967 140.09854545 184.12187121 138.14720154 184.12025452 C136.87528961 184.12162918 135.60337769 184.12300385 134.29292297 184.12442017 C132.87033058 184.12088055 131.44773842 184.11724573 130.02514648 184.11352539 C128.53733319 184.11324353 127.04951976 184.11340124 125.56170654 184.1139679 C121.51023 184.1142559 117.4587828 184.10835867 113.40731311 184.10139394 C109.17788003 184.09516092 104.94844636 184.09455664 100.7190094 184.09336853 C92.70440278 184.09025506 84.68980973 184.08204146 76.67520911 184.07201904 C67.55323316 184.06085839 58.43125658 184.05534758 49.30927551 184.05032361 C30.5395093 184.03985886 11.76975574 184.02225912 -7 184 C-7.07191435 182.1113263 -7.12279408 180.22184555 -7.16503906 178.33227539 C-7.19567444 177.28020401 -7.22630981 176.22813263 -7.25787354 175.1441803 C-6.8073927 169.65159277 -3.86937325 165.83172994 -0.75 161.4375 C0.54494472 159.51347422 1.83920393 157.5889869 3.1328125 155.6640625 C3.78540039 154.71305664 4.43798828 153.76205078 5.11035156 152.78222656 C7.88867114 148.69156379 10.50724492 144.5069572 13.125 140.3125 C14.10598881 138.75601726 15.0877576 137.20002584 16.0703125 135.64453125 C16.55274414 134.87963379 17.03517578 134.11473633 17.53222656 133.32666016 C20.01983359 129.38339753 22.51009446 125.44181149 25 121.5 C25.49371094 120.71818359 25.98742187 119.93636719 26.49609375 119.13085938 C29.01965553 115.13467081 31.54414975 111.13907621 34.0703125 107.14453125 C39.1406975 99.12504477 44.19737943 91.09760765 49.21801758 83.046875 C51.89928865 78.75088645 54.59891111 74.46690655 57.30810547 70.18847656 C67.5447953 54.02108522 77.58512181 37.73620643 87.50732422 21.37402344 C88.06564941 20.45395508 88.62397461 19.53388672 89.19921875 18.5859375 C89.69252686 17.7717334 90.18583496 16.9575293 90.6940918 16.11865234 C91.759861 14.38959175 92.87332831 12.69000753 94 11 C87.3469263 11.09290031 80.69419529 11.20028162 74.04150391 11.31738281 C71.78179118 11.35549144 69.52202154 11.39037475 67.26220703 11.421875 C64.00011958 11.46792123 60.73841796 11.52584814 57.4765625 11.5859375 C56.47823395 11.59748871 55.4799054 11.60903992 54.45132446 11.62094116 C40.80435685 11.90332973 30.50001327 14.72627405 20.39453125 24.1953125 C12.86686665 33.01238131 9.74007786 44.95459297 7 56 C3.7 56 0.4 56 -3 56 C-3 37.30656681 -1.30103048 18.6481035 0 0 Z " fill="#286E45" transform="translate(237,216)"/>
<path d="M0 0 C2.1875 0.0625 2.1875 0.0625 5 1 C6.40380319 2.68024444 7.54697837 4.44807747 8.73046875 6.2890625 C10.423173 8.570307 12.56262593 9.60721482 15 11 C15 11.99 15 12.98 15 14 C15.66 14 16.32 14 17 14 C17 14.66 17 15.32 17 16 C17.53625 16.226875 18.0725 16.45375 18.625 16.6875 C23.14467478 19.18521501 26.61270216 22.4301018 29.875 26.375 C33.69629497 30.97655939 38.19061829 34.74416172 42.84375 38.48046875 C44.25841495 39.61820637 45.6337626 40.80454227 47 42 C47 42.66 47 43.32 47 44 C47.66 44 48.32 44 49 44 C50.4375 45.49609375 50.4375 45.49609375 52 47.4375 C54.14525044 50.15188238 54.14525044 50.15188238 57 52 C57 52.66 57 53.32 57 54 C57.83144531 54.33837891 57.83144531 54.33837891 58.6796875 54.68359375 C61.68506155 56.38866286 63.72987003 58.57799951 66.125 61.0625 C69.24105765 64.46453483 69.24105765 64.46453483 73 67 C73 67.66 73 68.32 73 69 C74.485 69.495 74.485 69.495 76 70 C77.6875 71.4375 77.6875 71.4375 79 73 C79 73.66 79 74.32 79 75 C79.99 75 80.98 75 82 75 C83.71108689 76.62102968 85.37253306 78.29503463 87 80 C87.825 80.66 88.65 81.32 89.5 82 C91.65363549 83.72290839 93.55103529 85.53728854 95.48779297 87.49267578 C98.53885463 90.53388578 101.67943069 93.48127373 104.8125 96.4375 C105.48603516 97.08009766 106.15957031 97.72269531 106.85351562 98.38476562 C114.33898752 105.48634342 114.33898752 105.48634342 123 111 C123 111.66 123 112.32 123 113 C124.485 113.495 124.485 113.495 126 114 C127.68933922 115.6436814 129.35259924 117.3142876 131 119 C132.09526581 119.9066941 133.19939786 120.80279382 134.3125 121.6875 C135.199375 122.450625 136.08625 123.21375 137 124 C137 124.66 137 125.32 137 126 C137.99 126 138.98 126 140 126 C140 126.66 140 127.32 140 128 C140.99 128.33 141.98 128.66 143 129 C143 129.66 143 130.32 143 131 C143.69480469 131.22171875 144.38960937 131.4434375 145.10546875 131.671875 C148.69256495 133.31777609 151.38812102 135.65865252 154.3125 138.25 C158.641494 142.01597277 162.98885 145.6004999 167.70703125 148.87890625 C168.13371094 149.24886719 168.56039062 149.61882812 169 150 C169 150.66 169 151.32 169 152 C171.97 152.99 171.97 152.99 175 154 C175 154.66 175 155.32 175 156 C175.5775 156.268125 176.155 156.53625 176.75 156.8125 C179.05550043 158.02929189 181.02056192 159.30333879 183 161 C183 161.66 183 162.32 183 163 C183.54785156 163.08507812 184.09570312 163.17015625 184.66015625 163.2578125 C187.75703115 164.24012674 189.85159784 165.91674399 192.4375 167.875 C195.1953468 169.95393319 197.85008137 171.91403843 200.84765625 173.6328125 C201.55792969 174.08398438 202.26820313 174.53515625 203 175 C203 175.66 203 176.32 203 177 C203.71542969 177.25523437 204.43085938 177.51046875 205.16796875 177.7734375 C208.20246618 179.0876888 210.63188911 180.69496016 213.3125 182.625 C214.19550781 183.25664062 215.07851563 183.88828125 215.98828125 184.5390625 C216.65214844 185.02117187 217.31601562 185.50328125 218 186 C219.45683714 184.93295934 220.91360693 183.86582666 222.37011719 182.79833984 C223.68163959 181.83728207 224.99349686 180.87668113 226.30566406 179.91650391 C230.25620467 177.02280166 234.19475032 174.11396715 238.12109375 171.1875 C239.39956177 170.23738037 239.39956177 170.23738037 240.70385742 169.26806641 C242.38476576 168.01830485 244.06336693 166.76543345 245.73950195 165.50927734 C246.51124756 164.9364502 247.28299316 164.36362305 248.078125 163.7734375 C248.76293945 163.26216309 249.44775391 162.75088867 250.15332031 162.22412109 C252 161 252 161 255 160 C255 159.34 255 158.68 255 158 C256.3985665 157.02524153 257.80452797 156.05953297 259.24414062 155.14648438 C262.22268693 153.20164936 264.96766938 150.96239036 267.75 148.75 C268.36633301 148.26257324 268.98266602 147.77514648 269.61767578 147.27294922 C271.41378211 145.85112918 273.20726292 144.42606453 275 143 C275.84820312 142.32710937 276.69640625 141.65421875 277.5703125 140.9609375 C282.79974746 136.79511643 287.99361692 132.58500406 293.1875 128.375 C293.85313965 127.83633301 294.5187793 127.29766602 295.20458984 126.74267578 C298.97929011 123.67766798 302.698799 120.55955645 306.38110352 117.38427734 C308.6773324 115.42083023 311.02490043 113.52342878 313.375 111.625 C322.06367138 104.54104068 322.06367138 104.54104068 330.12890625 96.76953125 C332 95 332 95 334 95 C334 94.34 334 93.68 334 93 C335.609375 91.34375 335.609375 91.34375 337.75 89.5 C338.79414062 88.58734375 338.79414062 88.58734375 339.859375 87.65625 C341.84460792 86.12023037 343.71872045 85.0276034 346 84 C346 83.34 346 82.68 346 82 C347.59334239 80.56450274 349.25251082 79.20172673 350.9375 77.875 C357.12314653 72.9232984 363.14419208 67.85580792 368.75 62.25 C371.0401181 59.9598819 373.47291731 58.02166615 376 56 C376.845625 55.13375 377.69125 54.2675 378.5625 53.375 C380.74322996 51.25018619 382.34989261 50.3250537 385 49 C385.33 48.01 385.66 47.02 386 46 C386.66 46 387.32 46 388 46 C388 45.34 388 44.68 388 44 C389.375 42.375 389.375 42.375 391 41 C391.66 41 392.32 41 393 41 C393 40.34 393 39.68 393 39 C394.22265625 37.80078125 394.22265625 37.80078125 396.0625 36.3125 C401.33639313 31.86532525 406.09655011 26.92759803 410.89477539 21.97973633 C411.52504639 21.3380249 412.15531738 20.69631348 412.8046875 20.03515625 C413.37171387 19.4512915 413.93874023 18.86742676 414.52294922 18.26586914 C416 17 416 17 418 17 C418 16.34 418 15.68 418 15 C418.66 15 419.32 15 420 15 C420 14.34 420 13.68 420 13 C421.875 10.875 421.875 10.875 424 9 C424.66 9 425.32 9 426 9 C426.3403125 8.1646875 426.3403125 8.1646875 426.6875 7.3125 C428.35896766 4.36753316 430.55276352 2.31843456 433 0 C433.66 0.33 434.32 0.66 435 1 C433.69447229 4.62327775 432.13501548 7.43066583 429.796875 10.484375 C429.15347168 11.3285498 428.51006836 12.17272461 427.84716797 13.04248047 C426.80906982 14.38270264 426.80906982 14.38270264 425.75 15.75 C424.67516357 17.14629639 424.67516357 17.14629639 423.57861328 18.57080078 C413.79712757 31.21610854 403.75809284 43.49879544 392.72290039 55.07373047 C390.40361176 57.51308895 388.09853132 59.96385787 385.81347656 62.43530273 C375.66181782 73.39830818 365.17151438 84.01618353 354.60668945 94.57861328 C352.13478129 97.05041763 349.66995727 99.52916945 347.20659161 102.00948334 C344.83358461 104.39619211 342.4534913 106.77578727 340.07421875 109.15625 C339.19102463 110.04662964 338.30783051 110.93700928 337.39787292 111.85437012 C336.58554703 112.66361938 335.77322113 113.47286865 334.9362793 114.30664062 C334.22207321 115.02227173 333.50786713 115.73790283 332.77201843 116.47521973 C331 118 331 118 329 118 C328.67 118.99 328.34 119.98 328 121 C326.6796875 122.33203125 326.6796875 122.33203125 324.875 123.8125 C320.71463502 127.33911763 316.72527021 131.01831868 312.75 134.75 C304.26162479 142.70065486 295.77371742 150.65085296 286.98046875 158.265625 C284.68866845 160.27264538 282.44003248 162.32402851 280.1875 164.375 C275.7954932 168.34262578 271.2569253 172.09060538 266.65625 175.8125 C264.1931702 177.84091866 261.80723249 179.92640311 259.4375 182.0625 C255.59939448 185.5120229 251.62851972 188.74807964 247.58203125 191.94921875 C244.97011641 194.02373507 242.38892254 196.13160813 239.8125 198.25 C238.45898438 199.35214844 238.45898438 199.35214844 237.078125 200.4765625 C234.74035044 202.39306296 232.42184552 204.32686421 230.109375 206.2734375 C228.76073397 207.39100802 227.4117779 208.50819848 226.0625 209.625 C225.42352783 210.1705957 224.78455566 210.71619141 224.1262207 211.27832031 C222.28515625 212.7890625 222.28515625 212.7890625 219 215 C214.45385353 214.52712131 211.64417659 211.36348381 208.375 208.4375 C207.11311076 207.33073971 205.85008597 206.22527282 204.5859375 205.12109375 C203.97073242 204.58210449 203.35552734 204.04311523 202.72167969 203.48779297 C200.53023722 201.59405354 198.27725884 199.7892748 196 198 C191.30152036 194.28904974 186.77204764 190.40036957 182.23999023 186.48999023 C178.72228372 183.46017908 175.1713823 180.48397615 171.5625 177.5625 C161.59995622 169.45787555 151.93885642 160.99738246 142.56298828 152.22143555 C139.7839885 149.62347357 136.96553759 147.08522018 134.09375 144.58984375 C130.1203722 141.12923594 126.2675256 137.5554011 122.4375 133.9375 C121.18644447 132.75885283 119.93512846 131.58048209 118.68359375 130.40234375 C117.97058105 129.72945312 117.25756836 129.0565625 116.52294922 128.36328125 C114.65793823 126.6162998 112.78500801 124.88062127 110.90283203 123.15234375 C100.29134195 113.37792885 90.06934008 103.22422727 79.88134766 93.01171875 C77.46344387 90.58806172 75.04099651 88.16900305 72.61724854 85.75119209 C70.26322122 83.40167245 67.91303721 81.0483238 65.5625 78.6953125 C64.7051123 77.83994904 63.84772461 76.98458557 62.96435547 76.103302 C58.65774909 71.77997644 54.49209892 67.3992904 50.53686523 62.75094604 C48.92881787 60.91890241 47.24007847 59.20643636 45.5 57.5 C41.78816885 53.83744094 38.38222756 49.96672903 35 46 C34.5870166 45.51724609 34.1740332 45.03449219 33.74853516 44.53710938 C0 5.05631311 0 5.05631311 0 0 Z " fill="#E9EBE9" transform="translate(93,319)"/>
<path d="M0 0 C0.5775 0.226875 1.155 0.45375 1.75 0.6875 C-3.25 4.6875 -3.25 4.6875 -5.6875 6.625 C-11.89819267 11.57444517 -11.89819267 11.57444517 -17.5625 17.125 C-19.25 18.6875 -19.25 18.6875 -21.625 20.0625 C-24.62521012 21.91977293 -26.83256157 24.13192223 -29.25 26.6875 C-29.91 26.0275 -30.57 25.3675 -31.25 24.6875 C-26.99403615 19.01288153 -21.83441905 15.0111819 -16.25 10.6875 C-14.45604866 9.25285221 -12.66430911 7.81543348 -10.875 6.375 C-9.33756481 5.14054471 -7.79623033 3.91092084 -6.25 2.6875 C-5.54101562 2.11 -4.83203125 1.5325 -4.1015625 0.9375 C-2.25 -0.3125 -2.25 -0.3125 0 0 Z " fill="#245438" transform="translate(345.25,508.3125)"/>
<path d="M0 0 C0.99 0.33 1.98 0.66 3 1 C1.77083333 2.22916667 0.54166667 3.45833333 -0.6875 4.6875 C-1.41839844 5.4196875 -2.14929688 6.151875 -2.90234375 6.90625 C-4.5086946 8.5096095 -6.12680473 10.10119553 -7.75 11.6875 C-10.06634911 13.97807721 -10.06634911 13.97807721 -12.0625 16.6875 C-14 19 -14 19 -15.9375 19.9375 C-18.52977959 21.27291676 -19.91189062 23.20901048 -21.6953125 25.46875 C-23.54725406 27.6422862 -25.71556211 29.302989 -28 31 C-28 26.91807817 -25.91403892 25.31094292 -23.25 22.5 C-22.76063965 21.97462646 -22.2712793 21.44925293 -21.76708984 20.90795898 C-17.30461023 16.18451978 -12.57003247 11.8004468 -7.7265625 7.47265625 C-5.05978221 5.0542151 -2.52393973 2.56524056 0 0 Z " fill="#295B3F" transform="translate(434,426)"/>
<path d="M0 0 C14.85 0 29.7 0 45 0 C45.495 0.99 45.495 0.99 46 2 C44.91283691 1.97905273 43.82567383 1.95810547 42.70556641 1.93652344 C38.57924158 1.86280929 34.45297147 1.81773531 30.32617188 1.78027344 C28.55751689 1.7604512 26.78892471 1.73338508 25.02050781 1.69824219 C13.71117688 1.47951793 3.47883923 2.30361641 -7.49462891 5.13378906 C-11 6 -11 6 -14 6 C-14 5.34 -14 4.68 -14 4 C-13.21625 3.855625 -12.4325 3.71125 -11.625 3.5625 C-9.03578982 3.12201075 -9.03578982 3.12201075 -7 2 C-6.34 2.33 -5.68 2.66 -5 3 C-4.67 2.34 -4.34 1.68 -4 1 C-2.68 1.33 -1.36 1.66 0 2 C0 1.34 0 0.68 0 0 Z " fill="#579774" transform="translate(393,111)"/>
<path d="M0 0 C0 4.02739198 -0.59969762 5.55642169 -3.3125 8.5625 C-6 11 -6 11 -8.1875 11.9375 C-10.34395107 12.93434552 -10.34395107 12.93434552 -11 16 C-12 19 -12 19 -14.125 20.375 C-14.74375 20.58125 -15.3625 20.7875 -16 21 C-16.33 20.01 -16.66 19.02 -17 18 C-16.33613281 17.27554687 -15.67226563 16.55109375 -14.98828125 15.8046875 C-9.37211286 9.69643177 -9.37211286 9.69643177 -4 3.375 C-2 1 -2 1 0 0 Z " fill="#2B6145" transform="translate(505,353)"/>
<path d="M0 0 C0.99 0.33 1.98 0.66 3 1 C0.66666667 3.33333333 -1.66666667 5.66666667 -4 8 C-4.639375 8.66 -5.27875 9.32 -5.9375 10 C-8.10011562 12.09708182 -10.35785978 13.9207163 -12.75 15.75 C-13.54921875 16.36359375 -14.3484375 16.9771875 -15.171875 17.609375 C-15.77515625 18.06828125 -16.3784375 18.5271875 -17 19 C-17.66 18.67 -18.32 18.34 -19 18 C-13.71494515 11.38015314 -7.62643551 6.23924053 -1 1 C-0.67 0.67 -0.34 0.34 0 0 Z " fill="#25553A" transform="translate(371,484)"/>
<path d="M0 0 C0.39141678 0.64874084 0.78283356 1.29748169 1.18611145 1.96588135 C2.81814279 4.19281294 2.81814279 4.19281294 5.29692078 4.51898193 C6.19626846 4.52786438 7.09561615 4.53674683 8.0222168 4.54589844 C9.04304855 4.56561707 10.06388031 4.58533569 11.11564636 4.60565186 C12.76576469 4.60749481 12.76576469 4.60749481 14.44921875 4.609375 C16.14084892 4.63417938 16.14084892 4.63417938 17.86665344 4.65948486 C21.4736568 4.70812458 25.0802381 4.729372 28.6875 4.75 C31.13088079 4.77814619 33.57424179 4.8080717 36.01757812 4.83984375 C42.01164171 4.91388781 48.00558582 4.96543658 54 5 C54 5.33 54 5.66 54 6 C35.52 6 17.04 6 -2 6 C-1 1 -1 1 0 0 Z " fill="#CAE3D2" transform="translate(280,382)"/>
<path d="M0 0 C4.3554837 0.48511441 7.04736322 3.33953559 10.1875 6.125 C11.33975429 7.12790309 12.49340723 8.12920147 13.6484375 9.12890625 C14.21401367 9.61891113 14.77958984 10.10891602 15.36230469 10.61376953 C18.29941005 13.09988823 21.38780403 15.38350422 24.48828125 17.66015625 C24.98714844 18.10230469 25.48601562 18.54445313 26 19 C26 19.66 26 20.32 26 21 C25.34 21 24.68 21 24 21 C22 19 22 19 21 17 C20.4225 16.896875 19.845 16.79375 19.25 16.6875 C15.99925537 15.69421692 14.37546179 13.37546179 12 11 C9.82653432 10.13880866 9.82653432 10.13880866 8 10 C7.90847656 9.39542969 7.81695312 8.79085937 7.72265625 8.16796875 C6.82182833 5.465485 5.8053056 4.82885227 3.4375 3.3125 C2.27956918 2.55996146 1.13009755 1.79372387 0 1 C0 0.67 0 0.34 0 0 Z " fill="#1E4B31" transform="translate(275,507)"/>
<path d="M0 0 C0.6084375 0.19207031 1.216875 0.38414062 1.84375 0.58203125 C0.80927734 1.20078125 0.80927734 1.20078125 -0.24609375 1.83203125 C-6.81837572 5.87096448 -12.56701747 10.2688102 -18.15625 15.58203125 C-18.48625 14.59203125 -18.81625 13.60203125 -19.15625 12.58203125 C-18.16625 12.25203125 -17.17625 11.92203125 -16.15625 11.58203125 C-15.82625 10.59203125 -15.49625 9.60203125 -15.15625 8.58203125 C-14.49625 8.58203125 -13.83625 8.58203125 -13.15625 8.58203125 C-12.90875 7.96328125 -12.66125 7.34453125 -12.40625 6.70703125 C-10.89844866 4.14376896 -9.85279224 3.73769221 -7.15625 2.58203125 C-5.91875 1.74671875 -5.91875 1.74671875 -4.65625 0.89453125 C-2.15625 -0.41796875 -2.15625 -0.41796875 0 0 Z " fill="#3D8461" transform="translate(347.15625,131.41796875)"/>
<path d="M0 0 C3.43811794 0.28650983 4.74171193 0.73433227 7.1875 3.25 C8.87517068 5.81060379 9.94511773 8.13674813 11 11 C11.99 12.485 11.99 12.485 13 14 C12.34 14.66 11.68 15.32 11 16 C9.34908416 13.89965153 7.70418762 11.79504167 6.0625 9.6875 C5.59392578 9.09259766 5.12535156 8.49769531 4.64257812 7.88476562 C2.61444041 5.27299116 1.05369199 3.16107597 0 0 Z " fill="#E0EFE5" transform="translate(93,319)"/>
<path d="M0 0 C13.2 0 26.4 0 40 0 C40 0.66 40 1.32 40 2 C40.66 2.33 41.32 2.66 42 3 C40.69289062 2.84660156 39.38578125 2.69320312 38.0390625 2.53515625 C30.50275495 1.78152549 22.94132719 1.64333502 15.375 1.4375 C13.87889688 1.39420285 12.38280299 1.35058544 10.88671875 1.30664062 C7.25791139 1.20073818 3.62899865 1.0991582 0 1 C0 0.67 0 0.34 0 0 Z " fill="#69A786" transform="translate(190,111)"/>
<path d="M0 0 C0.33 0.66 0.66 1.32 1 2 C-0.109375 4.13671875 -0.109375 4.13671875 -1.75 6.6875 C-3.64234534 9.70220188 -5.32448928 12.53743893 -6.5625 15.875 C-8.17140525 19.37262011 -9.84271847 20.86670167 -13 23 C-11.49222254 17.31404403 -8.60096115 12.95575401 -5.375 8.125 C-4.859375 7.34125 -4.34375 6.5575 -3.8125 5.75 C-2.54763162 3.82927393 -1.27672497 1.91285653 0 0 Z " fill="#D2ECDF" transform="translate(96,164)"/>
<path d="M0 0 C3.99859483 0.55280113 5.98807717 2.53395423 8.875 5.25 C12.50531411 8.61717004 16.16411875 11.87072845 20 15 C19.67 15.66 19.34 16.32 19 17 C14.77694524 14.34831445 11.50112227 11.58865033 8 8 C6.90407403 7.09410395 5.79982063 6.19818855 4.6875 5.3125 C3.800625 4.549375 2.91375 3.78625 2 3 C2 2.34 2 1.68 2 1 C1.34 0.67 0.68 0.34 0 0 Z " fill="#1F4E33" transform="translate(254,489)"/>
<path d="M0 0 C0.56203125 0.25652344 1.1240625 0.51304687 1.703125 0.77734375 C-2.10099334 4.6967384 -6.11263608 8.26837106 -10.296875 11.77734375 C-10.626875 10.78734375 -10.956875 9.79734375 -11.296875 8.77734375 C-9.89609102 7.241869 -8.47566597 5.72429227 -7.046875 4.21484375 C-5.86351562 2.94447266 -5.86351562 2.94447266 -4.65625 1.6484375 C-2.296875 -0.22265625 -2.296875 -0.22265625 0 0 Z " fill="#2A6042" transform="translate(474.296875,388.22265625)"/>
<path d="M0 0 C0.99 0 1.98 0 3 0 C1.87913866 3.87990465 0.96723147 6.28003781 -2 9 C-2.4640625 10.051875 -2.4640625 10.051875 -2.9375 11.125 C-4 13 -4 13 -6.125 13.75 C-7.053125 13.87375 -7.053125 13.87375 -8 14 C-6.6825683 10.45112896 -5.12916347 7.35848746 -3.0625 4.1875 C-2.55847656 3.39730469 -2.05445313 2.60710937 -1.53515625 1.79296875 C-1.02855469 1.20128906 -0.52195313 0.60960937 0 0 Z " fill="#326C4C" transform="translate(253,352)"/>
<path d="M0 0 C3.31892629 0.58812391 5.02678399 1.62739584 7.453125 3.94140625 C8.071875 4.52470703 8.690625 5.10800781 9.328125 5.70898438 C9.96234375 6.32064453 10.5965625 6.93230469 11.25 7.5625 C11.8996875 8.17802734 12.549375 8.79355469 13.21875 9.42773438 C14.81880287 10.94543158 16.41213644 12.46957115 18 14 C17.67 14.66 17.34 15.32 17 16 C16.566875 15.505 16.13375 15.01 15.6875 14.5 C14.00259517 12.66781808 14.00259517 12.66781808 11 13 C9.98648336 11.34151823 8.98879205 9.67334039 8 8 C6.37373596 6.61767557 4.7074998 5.28062485 3 4 C1.1875 2.3125 1.1875 2.3125 0 1 C0 0.67 0 0.34 0 0 Z " fill="#215337" transform="translate(219,458)"/>
<path d="M0 0 C0.99 0.33 1.98 0.66 3 1 C1.69161864 3.002807 0.37857806 5.00226099 -0.9375 7 C-1.49727539 7.85851562 -1.49727539 7.85851562 -2.06835938 8.734375 C-3.01944589 10.17385729 -4.00694276 11.58914489 -5 13 C-5.33 13 -5.66 13 -6 13 C-5.63118644 6.85310727 -4.09949571 4.30972626 0 0 Z M-7 13 C-7 13.99 -7 14.98 -7 16 C-7.66 15.67 -8.32 15.34 -9 15 C-8.34 14.34 -7.68 13.68 -7 13 Z " fill="#286343" transform="translate(523,328)"/>
<path d="M0 0 C0.66 0.33 1.32 0.66 2 1 C1.278125 1.77085937 0.55625 2.54171875 -0.1875 3.3359375 C-1.12525968 4.34871795 -2.06274557 5.36175196 -3 6.375 C-3.47695313 6.88289063 -3.95390625 7.39078125 -4.4453125 7.9140625 C-7.16117714 10.52862765 -7.16117714 10.52862765 -8 14 C-9.98 14.99 -11.96 15.98 -14 17 C-12.44363758 13.37409619 -10.2207077 10.83141085 -7.5625 7.9375 C-6.78003906 7.08027344 -5.99757813 6.22304688 -5.19140625 5.33984375 C-3.49079133 3.52403566 -1.77582096 1.74156074 0 0 Z " fill="#2C5D42" transform="translate(419,440)"/>
<path d="M0 0 C4.28806873 0.47645208 6.26647487 1.65902484 9 5 C9 5.66 9 6.32 9 7 C9.99 7.33 10.98 7.66 12 8 C11.67 9.32 11.34 10.64 11 12 C9.16364422 10.19047409 7.33083792 8.37759362 5.5 6.5625 C4.97535156 6.04623047 4.45070312 5.52996094 3.91015625 4.99804688 C2.58775448 3.68423213 1.29164432 2.34406495 0 1 C0 0.67 0 0.34 0 0 Z " fill="#D9E4DC" transform="translate(188,426)"/>
<path d="M0 0 C1.32 0.33 2.64 0.66 4 1 C0.50640535 4.59634744 -3.11098131 7.83451967 -7 11 C-7.66 10.67 -8.32 10.34 -9 10 C-6.03 6.7 -3.06 3.4 0 0 Z " fill="#24573A" transform="translate(384,472)"/>
<path d="M0 0 C0.5775 0.2475 1.155 0.495 1.75 0.75 C-0.25 3.75 -0.25 3.75 -2.75 5.1875 C-5.37270914 6.51286812 -5.37270914 6.51286812 -6.25 8.875 C-6.58 9.49375 -6.91 10.1125 -7.25 10.75 C-9.875 11.5 -9.875 11.5 -12.25 11.75 C-3.41766467 -0.37974052 -3.41766467 -0.37974052 0 0 Z " fill="#1C5334" transform="translate(402.25,458.25)"/>
<path d="M0 0 C3.34314819 1.45746236 5.6078211 3.30984087 8.1875 5.875 C9.22970703 6.89207031 9.22970703 6.89207031 10.29296875 7.9296875 C12.0254452 10.03086032 12.60055703 11.34102145 13 14 C12.34 14 11.68 14 11 14 C11 13.34 11 12.68 11 12 C10.01 11.67 9.02 11.34 8 11 C6.46484375 9.1875 6.46484375 9.1875 4.9375 7 C2.92046147 3.98371816 2.92046147 3.98371816 0 2 C0 1.34 0 0.68 0 0 Z " fill="#295F41" transform="translate(147,387)"/>
<path d="M0 0 C0.33 0 0.66 0 1 0 C1.375 2.125 1.375 2.125 1 5 C-0.68143919 7.3957761 -2.49251814 9.47020602 -5 11 C-7.203125 10.6640625 -7.203125 10.6640625 -9 10 C-8.27683594 9.29423828 -8.27683594 9.29423828 -7.5390625 8.57421875 C-6.90742188 7.95160156 -6.27578125 7.32898438 -5.625 6.6875 C-4.68527344 5.76517578 -4.68527344 5.76517578 -3.7265625 4.82421875 C-1.81913393 2.91187472 -1.81913393 2.91187472 0 0 Z " fill="#3A7552" transform="translate(366,368)"/>
<path d="M0 0 C0 0.66 0 1.32 0 2 C1.65 2.33 3.3 2.66 5 3 C5 3.66 5 4.32 5 5 C-0.72398793 4.25339288 -6.34853777 3.17122859 -12 2 C-12 1.67 -12 1.34 -12 1 C-10.56274129 0.83126522 -9.12518162 0.66509263 -7.6875 0.5 C-6.88699219 0.4071875 -6.08648437 0.314375 -5.26171875 0.21875 C-3 0 -3 0 0 0 Z " fill="#50906E" transform="translate(453,112)"/>
<path d="M0 0 C0.33 0 0.66 0 1 0 C1.22389218 2.52029979 1.42942078 5.03997257 1.625 7.5625 C1.68945312 8.26697266 1.75390625 8.97144531 1.8203125 9.69726562 C2.17991833 14.57441966 1.55230511 18.29742865 0 23 C-0.36950465 25.32787927 -0.71352467 27.66045145 -1 30 C-1.33 30 -1.66 30 -2 30 C-2.12498044 23.4385268 -1.63398664 17.02834887 -1 10.5 C-0.85691406 8.98019531 -0.85691406 8.98019531 -0.7109375 7.4296875 C-0.47726802 4.95279097 -0.24021596 2.47626873 0 0 Z " fill="#C6DCCE" transform="translate(385,352)"/>
<path d="M0 0 C0.33 0 0.66 0 1 0 C0.67 8.58 0.34 17.16 0 26 C-0.33 26 -0.66 26 -1 26 C-1.22567411 22.22999352 -1.42755846 18.45908213 -1.625 14.6875 C-1.68945312 13.61564453 -1.75390625 12.54378906 -1.8203125 11.43945312 C-1.871875 10.41142578 -1.9234375 9.38339844 -1.9765625 8.32421875 C-2.02893066 7.37635498 -2.08129883 6.42849121 -2.13525391 5.4519043 C-2 3 -2 3 0 0 Z " fill="#45825F" transform="translate(71,224)"/>
<path d="M0 0 C0.66 0 1.32 0 2 0 C2.22577402 5.4185766 1.46670113 9.77487721 0 15 C-2.60329886 11.09505171 -1.80930803 8.37202275 -1 4 C-0.69830934 2.65915264 -0.38482319 1.3193938 0 0 Z " fill="#3A7253" transform="translate(547,276)"/>
<path d="M0 0 C5.75 2.625 5.75 2.625 8 6 C7.625 8.1875 7.625 8.1875 7 10 C5.82438854 8.90536178 4.6597511 7.79892814 3.5 6.6875 C2.52546875 5.76517578 2.52546875 5.76517578 1.53125 4.82421875 C0 3 0 3 0 0 Z " fill="#D5E2D9" transform="translate(222,456)"/>
<path d="M0 0 C6.70459519 5.0940919 6.70459519 5.0940919 7.9375 8.875 C7.958125 9.57625 7.97875 10.2775 8 11 C0.51708428 4.84965831 0.51708428 4.84965831 -2 1 C-1.34 0.67 -0.68 0.34 0 0 Z " fill="#DEE9E1" transform="translate(154,389)"/>
<path d="M0 0 C0.33 0 0.66 0 1 0 C0.67 7.92 0.34 15.84 0 24 C-0.33 24 -0.66 24 -1 24 C-1.22297226 21.12546578 -1.42878171 18.2513818 -1.625 15.375 C-1.68945312 14.56675781 -1.75390625 13.75851562 -1.8203125 12.92578125 C-2.13273892 8.12222508 -1.92020113 4.52932939 0 0 Z " fill="#49765B" transform="translate(385,343)"/>
<path d="M0 0 C0.66 0.33 1.32 0.66 2 1 C-0.64 4.63 -3.28 8.26 -6 12 C-7 9 -7 9 -5.5625 5.8125 C-5.046875 4.884375 -4.53125 3.95625 -4 3 C-3.34 3 -2.68 3 -2 3 C-2 2.34 -2 1.68 -2 1 C-1.34 0.67 -0.68 0.34 0 0 Z " fill="#438662" transform="translate(101,155)"/>
<path d="M0 0 C0.66 0 1.32 0 2 0 C0.52278578 3.45201639 -1.43794001 5.64961936 -4.125 8.25 C-4.84945313 8.95640625 -5.57390625 9.6628125 -6.3203125 10.390625 C-6.87460937 10.92171875 -7.42890625 11.4528125 -8 12 C-8.33 11.01 -8.66 10.02 -9 9 C-7.68 8.34 -6.36 7.68 -5 7 C-5 6.34 -5 5.68 -5 5 C-4.34 5 -3.68 5 -3 5 C-2.690625 4.360625 -2.38125 3.72125 -2.0625 3.0625 C-1 1 -1 1 0 0 Z " fill="#D8ECE1" transform="translate(447,410)"/>
<path d="M0 0 C0.33 0.66 0.66 1.32 1 2 C-0.70135776 5.23257974 -2.76039553 8.12050853 -5 11 C-5.99 10.34 -6.98 9.68 -8 9 C-5.36 6.03 -2.72 3.06 0 0 Z " fill="#366B4F" transform="translate(481,378)"/>
<path d="M0 0 C3.21043882 1.38188453 5.04936365 2.92421903 7.25 5.625 C8.03117188 6.57246094 8.03117188 6.57246094 8.828125 7.5390625 C9.40820312 8.26222656 9.40820312 8.26222656 10 9 C8.68 8.67 7.36 8.34 6 8 C6 7.34 6 6.68 6 6 C4.35 5.67 2.7 5.34 1 5 C0.67 3.35 0.34 1.7 0 0 Z " fill="#245438" transform="translate(191,431)"/>
<path d="M0 0 C4.29926263 1.59231949 6.35005733 4.39313359 9 8 C9 8.99 9 9.98 9 11 C8.34 11 7.68 11 7 11 C5.2734375 9.1015625 5.2734375 9.1015625 3.375 6.625 C2.42753906 5.40683594 2.42753906 5.40683594 1.4609375 4.1640625 C0 2 0 2 0 0 Z " fill="#2D6546" transform="translate(111,346)"/>
<path d="M0 0 C3.59905908 0.55550695 4.99909799 1.74887248 7.25 4.5625 C8.03117188 5.52349609 8.03117188 5.52349609 8.828125 6.50390625 C9.21484375 6.99761719 9.6015625 7.49132812 10 8 C8.35 7.67 6.7 7.34 5 7 C5 6.34 5 5.68 5 5 C4.360625 4.731875 3.72125 4.46375 3.0625 4.1875 C1 3 1 3 0 0 Z " fill="#3D6B50" transform="translate(139,379)"/>
<path d="M0 0 C-1.38188453 3.21043882 -2.92421903 5.04936365 -5.625 7.25 C-6.57246094 8.03117188 -6.57246094 8.03117188 -7.5390625 8.828125 C-8.02117187 9.21484375 -8.50328125 9.6015625 -9 10 C-9 7 -9 7 -7.5390625 5.17578125 C-6.90742188 4.56089844 -6.27578125 3.94601563 -5.625 3.3125 C-4.68527344 2.37857422 -4.68527344 2.37857422 -3.7265625 1.42578125 C-2 0 -2 0 0 0 Z " fill="#DDEFE4" transform="translate(264,235)"/>
<path d="M0 0 C3.7952131 1.49097658 5.61042731 3.75700849 8 7 C4 7 4 7 1.25 4.5 C0.5075 3.675 -0.235 2.85 -1 2 C-0.67 1.34 -0.34 0.68 0 0 Z " fill="#25583A" transform="translate(208,447)"/>
<path d="M0 0 C0.33 0 0.66 0 1 0 C1.56312292 11.90900701 1.56312292 11.90900701 -2 16 C-2.99 16.66 -3.98 17.32 -5 18 C-3.87548273 15.0280615 -2.77706209 12.66559313 -1 10 C-0.54398739 7.49103314 -0.54398739 7.49103314 -0.375 4.8125 C-0.30023438 3.91144531 -0.22546875 3.01039063 -0.1484375 2.08203125 C-0.09945313 1.39496094 -0.05046875 0.70789063 0 0 Z " fill="#C0D6CA" transform="translate(378,216)"/>
<path d="M0 0 C0.66 0.33 1.32 0.66 2 1 C1.67 2.65 1.34 4.3 1 6 C0.34 6 -0.32 6 -1 6 C-1 6.66 -1 7.32 -1 8 C-2.32 8.33 -3.64 8.66 -5 9 C-3.35 6.03 -1.7 3.06 0 0 Z " fill="#367050" transform="translate(244,366)"/>
<path d="M0 0 C0.33 0.66 0.66 1.32 1 2 C0.14453125 4.05859375 0.14453125 4.05859375 -1.1875 6.4375 C-1.82751953 7.61119141 -1.82751953 7.61119141 -2.48046875 8.80859375 C-4.08188172 11.11808649 -5.6741412 12.45108761 -8 14 C-6.6744419 10.37723685 -5.05653045 7.36494652 -2.875 4.1875 C-2.33617187 3.39730469 -1.79734375 2.60710937 -1.2421875 1.79296875 C-0.83226562 1.20128906 -0.42234375 0.60960937 0 0 Z " fill="#D6EBDF" transform="translate(329,303)"/>
<path d="M0 0 C1 3 1 3 -0.1875 6.0625 C-1.99216457 8.9873012 -2.82880497 9.90648447 -6 11 C-4.54955729 6.89041233 -2.48889248 3.56741255 0 0 Z " fill="#D3E6DA" transform="translate(291,364)"/>
<path d="M0 0 C2.93200474 2.85276137 5.64315404 5.65079784 8 9 C6.125 8.75 6.125 8.75 4 8 C2.75 5.9375 2.75 5.9375 2 4 C1.01 4.33 0.02 4.66 -1 5 C-0.67 3.35 -0.34 1.7 0 0 Z " fill="#36694B" transform="translate(125,361)"/>
<path d="M0 0 C0 3 0 3 -1 6 C-1.99 6.33 -2.98 6.66 -4 7 C-3.6875 4.625 -3.6875 4.625 -3 2 C-2.01 1.34 -1.02 0.68 0 0 Z M-5 7 C-5 7.99 -5 8.98 -5 10 C-5.99 10.495 -5.99 10.495 -7 11 C-6.34 9.68 -5.68 8.36 -5 7 Z " fill="#265F40" transform="translate(505,353)"/>
<path d="M0 0 C0.66 0.99 1.32 1.98 2 3 C0.75 5.9375 0.75 5.9375 -1 9 C-3.1875 9.875 -3.1875 9.875 -5 10 C-3.66511872 6.40608886 -2.03977277 3.24509304 0 0 Z " fill="#3B7A58" transform="translate(305,269)"/>
<path d="M0 0 C0.66 0.33 1.32 0.66 2 1 C1.54554036 2.41791408 1.08625056 3.83428046 0.625 5.25 C0.36976563 6.03890625 0.11453125 6.8278125 -0.1484375 7.640625 C-1 10 -1 10 -3 14 C-3 11.03 -3 8.06 -3 5 C-2.34 5 -1.68 5 -1 5 C-0.67 3.35 -0.34 1.7 0 0 Z " fill="#3E7959" transform="translate(249,248)"/>
<path d="M0 0 C5 2 5 2 10 4 C9.01 5.485 9.01 5.485 8 7 C7.01 7 6.02 7 5 7 C3.61328125 5.46875 3.61328125 5.46875 2.3125 3.5 C1.87550781 2.8503125 1.43851562 2.200625 0.98828125 1.53125 C0.49908203 0.77328125 0.49908203 0.77328125 0 0 Z " fill="#43785D" transform="translate(304,158)"/>
<path d="M0 0 C4.39750672 0.50740462 6.86948922 3.08293314 10 6 C10 6.66 10 7.32 10 8 C9.34 8 8.68 8 8 8 C6 6 6 6 5 4 C4.01 3.7834375 4.01 3.7834375 3 3.5625 C2.34 3.376875 1.68 3.19125 1 3 C0.67 2.01 0.34 1.02 0 0 Z " fill="#235137" transform="translate(291,520)"/>
<path d="M0 0 C1.65 0.33 3.3 0.66 5 1 C5 2.65 5 4.3 5 6 C2.5 4.6875 2.5 4.6875 0 3 C0 2.01 0 1.02 0 0 Z " fill="#CFDBD4" transform="translate(260,490)"/>
<path d="M0 0 C0.66 0.33 1.32 0.66 2 1 C1.24203125 1.61488281 1.24203125 1.61488281 0.46875 2.2421875 C-0.50578125 3.05042969 -0.50578125 3.05042969 -1.5 3.875 C-2.47453125 4.67550781 -2.47453125 4.67550781 -3.46875 5.4921875 C-4.22671875 6.23855469 -4.22671875 6.23855469 -5 7 C-5 7.66 -5 8.32 -5 9 C-6.32 8.67 -7.64 8.34 -9 8 C-8.07038578 6.84775972 -7.1309875 5.70340824 -6.1875 4.5625 C-5.66542969 3.92441406 -5.14335937 3.28632813 -4.60546875 2.62890625 C-3 1 -3 1 0 0 Z " fill="#185333" transform="translate(425,437)"/>
<path d="M0 0 C0.99 0.33 1.98 0.66 3 1 C2.02526874 2.66926454 1.04510211 4.33535642 0.0625 6 C-0.75541016 7.3921875 -0.75541016 7.3921875 -1.58984375 8.8125 C-2.05519531 9.534375 -2.52054687 10.25625 -3 11 C-3.33 11 -3.66 11 -4 11 C-4 9.02 -4 7.04 -4 5 C-3.01 5 -2.02 5 -1 5 C-0.67 3.35 -0.34 1.7 0 0 Z " fill="#3E7356" transform="translate(370,233)"/>
<path d="M0 0 C3.3 0 6.6 0 10 0 C8.92598892 2.91517292 8.22189824 4.77810176 6 7 C6 5.02 6 3.04 6 1 C4.02 1 2.04 1 0 1 C0 0.67 0 0.34 0 0 Z " fill="#E3F6E5" transform="translate(320,228)"/>
<path d="M0 0 C0 3 0 3 -1.75 5.04296875 C-2.4925 5.75066406 -3.235 6.45835937 -4 7.1875 C-4.7425 7.90292969 -5.485 8.61835938 -6.25 9.35546875 C-7.11625 10.16951172 -7.11625 10.16951172 -8 11 C-8.66 10.67 -9.32 10.34 -10 10 C-7.02911382 6.00073014 -3.87051275 3.07881696 0 0 Z " fill="#E3F6EC" transform="translate(330,145)"/>
<path d="M0 0 C0.66 0.33 1.32 0.66 2 1 C-1 4 -4 7 -7 10 C-7.66 9.67 -8.32 9.34 -9 9 C-6.03 6.03 -3.06 3.06 0 0 Z " fill="#DCF3E7" transform="translate(116,142)"/>
<path d="M0 0 C0.66 0 1.32 0 2 0 C1.61479436 2.53910197 1.29902057 3.72751123 -0.62890625 5.484375 C-1.26699219 5.90203125 -1.90507812 6.3196875 -2.5625 6.75 C-3.20316406 7.17796875 -3.84382813 7.6059375 -4.50390625 8.046875 C-5.24447266 8.51867187 -5.24447266 8.51867187 -6 9 C-5.67 7.68 -5.34 6.36 -5 5 C-4.34 5 -3.68 5 -3 5 C-2.67 4.01 -2.34 3.02 -2 2 C-1.34 2 -0.68 2 0 2 C0 1.34 0 0.68 0 0 Z " fill="#468667" transform="translate(334,138)"/>
<path d="M0 0 C3.36704285 -0.2295711 5.41370268 -0.33943529 8.375 1.375 C8.91125 1.91125 9.4475 2.4475 10 3 C10 3.66 10 4.32 10 5 C6.08788267 3.84414715 3.1254959 2.64465038 0 0 Z " fill="#579274" transform="translate(260,124)"/>
<path d="M0 0 C0.99 0.33 1.98 0.66 3 1 C0.25604436 3.94721162 -2.38337216 6.19168608 -6 8 C-6.66 7.67 -7.32 7.34 -8 7 C-6.74057614 5.80040625 -5.46704714 4.61560557 -4.1875 3.4375 C-3.12595703 2.44556641 -3.12595703 2.44556641 -2.04296875 1.43359375 C-1.36878906 0.96050781 -0.69460938 0.48742187 0 0 Z " fill="#2D5B42" transform="translate(371,484)"/>
<path d="M0 0 C0.99 0.33 1.98 0.66 3 1 C2 4 2 4 -1.0625 5.6875 C-2.031875 6.120625 -3.00125 6.55375 -4 7 C-3.43628586 3.73045798 -2.50037734 2.17424117 0 0 Z " fill="#2C5D40" transform="translate(443,417)"/>
<path d="M0 0 C0.66 0.99 1.32 1.98 2 3 C1.01 3.66 0.02 4.32 -1 5 C-1.33 5.845625 -1.66 6.69125 -2 7.5625 C-2.33 8.366875 -2.66 9.17125 -3 10 C-3.99 10.33 -4.98 10.66 -6 11 C-4.54955729 6.89041233 -2.48889248 3.56741255 0 0 Z " fill="#477C60" transform="translate(275,317)"/>
<path d="M0 0 C0.66 0 1.32 0 2 0 C3.2890625 1.53125 3.2890625 1.53125 4.625 3.5 C5.07101563 4.1496875 5.51703125 4.799375 5.9765625 5.46875 C6.31429687 5.9740625 6.65203125 6.479375 7 7 C6.67 7.66 6.34 8.32 6 9 C3 8 3 8 1.3125 5.625 C0 3 0 3 0 0 Z " fill="#316849" transform="translate(90,317)"/>
<path d="M0 0 C-2.64 1.98 -5.28 3.96 -8 6 C-8 4.68 -8 3.36 -8 2 C-7.34 2 -6.68 2 -6 2 C-6 1.34 -6 0.68 -6 0 C-4 -1 -4 -1 0 0 Z " fill="#42795A" transform="translate(265,234)"/>
<path d="M0 0 C-3.63 1.98 -7.26 3.96 -11 6 C-10.67 4.68 -10.34 3.36 -10 2 C-8.68 2 -7.36 2 -6 2 C-6 1.34 -6 0.68 -6 0 C-4 -1 -4 -1 0 0 Z " fill="#438864" transform="translate(138,128)"/>
<path d="M0 0 C2 2 2 2 2 4 C2.33 5.32 2.66 6.64 3 8 C0.69 6.35 -1.62 4.7 -4 3 C-2.68 2.01 -1.36 1.02 0 0 Z " fill="#E0E8E1" transform="translate(219,450)"/>
<path d="M0 0 C3.36720387 1.39332574 4.9859524 2.9789286 7 6 C6.01 6.495 6.01 6.495 5 7 C4.01 6.67 3.02 6.34 2 6 C0.8125 2.9375 0.8125 2.9375 0 0 Z " fill="#336346" transform="translate(176,416)"/>
<path d="M0 0 C0.99 0.33 1.98 0.66 3 1 C0.69 3.31 -1.62 5.62 -4 8 C-4.33 7.01 -4.66 6.02 -5 5 C-3.35 3.35 -1.7 1.7 0 0 Z " fill="#D3E7DC" transform="translate(486,370)"/>
<path d="M0 0 C0.33 1.32 0.66 2.64 1 4 C-0.9375 6.25 -0.9375 6.25 -3 8 C-3.99 7.67 -4.98 7.34 -6 7 C-4.02 4.69 -2.04 2.38 0 0 Z " fill="#417357" transform="translate(509,346)"/>
<path d="M0 0 C-4.33664919 3.11696661 -7.80408388 3.55966813 -13 4 C-11.72807637 1.45615274 -10.80051531 1.30631844 -8.1875 0.3125 C-7.50042969 0.04050781 -6.81335938 -0.23148438 -6.10546875 -0.51171875 C-3.70623504 -1.06812731 -2.3105636 -0.77364938 0 0 Z " fill="#B7D8C3" transform="translate(280,229)"/>
<path d="M0 0 C0.66 0.33 1.32 0.66 2 1 C0.68 3.31 -0.64 5.62 -2 8 C-2.66 7.34 -3.32 6.68 -4 6 C-3.8125 4 -3.8125 4 -3 2 C-2.01 1.34 -1.02 0.68 0 0 Z " fill="#377D5A" transform="translate(92,167)"/>
<path d="M0 0 C0.99 0.33 1.98 0.66 3 1 C3.33 2.98 3.66 4.96 4 7 C1.69 5.35 -0.62 3.7 -3 2 C-2.01 1.34 -1.02 0.68 0 0 Z " fill="#478764" transform="translate(290,140)"/>
<path d="M0 0 C0.66 0.33 1.32 0.66 2 1 C-0.31 3.64 -2.62 6.28 -5 9 C-5.99 8.67 -6.98 8.34 -8 8 C-5.36 5.36 -2.72 2.72 0 0 Z " fill="#366047" transform="translate(394,463)"/>
<path d="M0 0 C0.33 0.99 0.66 1.98 1 3 C-0.40445835 5.2636564 -2.1967913 7.0208685 -4 9 C-4.99 8.67 -5.98 8.34 -7 8 C-4.69 5.36 -2.38 2.72 0 0 Z " fill="#36674E" transform="translate(500,357)"/>
<path d="M0 0 C0.66 0.99 1.32 1.98 2 3 C1.25 4.9375 1.25 4.9375 0 7 C-2.125 7.75 -2.125 7.75 -4 8 C-2.87548273 5.0280615 -1.77706209 2.66559313 0 0 Z " fill="#396F53" transform="translate(249,358)"/>
<path d="M0 0 C0.33 0.66 0.66 1.32 1 2 C1.66 2.33 2.32 2.66 3 3 C0.36 4.98 -2.28 6.96 -5 9 C-3.7508258 5.54074837 -2.32472205 2.85306797 0 0 Z " fill="#DDEDE2" transform="translate(341,284)"/>
<path d="M0 0 C0.93065133 2.60582371 1.14917407 3.64198224 0.0625 6.25 C-0.4634375 7.11625 -0.4634375 7.11625 -1 8 C-1.99 8 -2.98 8 -4 8 C-2.87548273 5.0280615 -1.77706209 2.66559313 0 0 Z " fill="#437D5C" transform="translate(314,255)"/>
<path d="M0 0 C2.475 0.99 2.475 0.99 5 2 C5 2.66 5 3.32 5 4 C5.66 4 6.32 4 7 4 C6.67 4.66 6.34 5.32 6 6 C4.02 5.01 2.04 4.02 0 3 C0 2.01 0 1.02 0 0 Z " fill="#D9E9DF" transform="translate(279,506)"/>
<path d="M0 0 C0 3 0 3 -1.3125 4.38671875 C-2.875 5.59114583 -4.4375 6.79557292 -6 8 C-6.66 7.67 -7.32 7.34 -8 7 C-5.87696444 3.81544666 -4.26504948 2.84182279 -1 1 C-0.67 0.67 -0.34 0.34 0 0 Z " fill="#17492C" transform="translate(360,495)"/>
<path d="M0 0 C0.33 0.66 0.66 1.32 1 2 C-1.47812494 5.45167403 -2.79606135 7.23163306 -7 8 C-6.02133662 6.85373678 -5.04205413 5.70800212 -4.0625 4.5625 C-3.51722656 3.92441406 -2.97195313 3.28632813 -2.41015625 2.62890625 C-1.63204305 1.73008851 -0.84063472 0.84063472 0 0 Z " fill="#36664B" transform="translate(454,406)"/>
<path d="M0 0 C0.66 0 1.32 0 2 0 C0.6302836 3.99500618 -1.25722422 6.80009492 -4 10 C-3.67 8.02 -3.34 6.04 -3 4 C-2.01 3.67 -1.02 3.34 0 3 C0 2.01 0 1.02 0 0 Z " fill="#417457" transform="translate(326,304)"/>
<path d="M0 0 C2.18975773 3.28463659 2.99806563 6.20696275 4 10 C3.01 9.67 2.02 9.34 1 9 C-1.26415094 3.79245283 -1.26415094 3.79245283 0 0 Z " fill="#316B4A" transform="translate(77,288)"/>
<path d="M0 0 C1.7074998 1.28062485 3.37373596 2.61767557 5 4 C5 4.66 5 5.32 5 6 C4.01 6.33 3.02 6.66 2 7 C1.01 5.02 0.02 3.04 -1 1 C-0.67 0.67 -0.34 0.34 0 0 Z " fill="#307854" transform="translate(528,165)"/>
<path d="M0 0 C-0.66 1.65 -1.32 3.3 -2 5 C-3.32 5 -4.64 5 -6 5 C-5.6875 3.0625 -5.6875 3.0625 -5 1 C-2 0 -2 0 0 0 Z " fill="#318156" transform="translate(499,129)"/>
<path d="M0 0 C0.99 0.33 1.98 0.66 3 1 C-0.465 3.97 -0.465 3.97 -4 7 C-3.04065919 3.16263678 -2.76390737 2.40339772 0 0 Z " fill="#D1E5D8" transform="translate(390,464)"/>
<path d="M0 0 C2.4375 0.75 2.4375 0.75 5 2 C5.8125 4.125 5.8125 4.125 6 6 C3.37812506 4.95125002 2.20628639 4.35068687 0.75 1.875 C0.5025 1.25625 0.255 0.6375 0 0 Z " fill="#DEECE3" transform="translate(107,338)"/>
<path d="M0 0 C0.99 0.33 1.98 0.66 3 1 C1.6875 3.5 1.6875 3.5 0 6 C-0.99 6 -1.98 6 -3 6 C-1.125 1.125 -1.125 1.125 0 0 Z " fill="#346B4B" transform="translate(527,322)"/>
<path d="M0 0 C0.99 0.33 1.98 0.66 3 1 C0.36 2.98 -2.28 4.96 -5 7 C-5 6.01 -5 5.02 -5 4 C-4.34 4 -3.68 4 -3 4 C-3 3.34 -3 2.68 -3 2 C-2.01 1.34 -1.02 0.68 0 0 Z " fill="#478667" transform="translate(122,135)"/>
<path d="M0 0 C4.75 -0.125 4.75 -0.125 7 1 C6.34 2.32 5.68 3.64 5 5 C3.35 3.35 1.7 1.7 0 0 Z " fill="#D8E3DA" transform="translate(296,522)"/>
<path d="M0 0 C0.86625 0.3403125 0.86625 0.3403125 1.75 0.6875 C0.1 2.0075 -1.55 3.3275 -3.25 4.6875 C-4.24 4.0275 -5.23 3.3675 -6.25 2.6875 C-2.80384615 -0.38942308 -2.80384615 -0.38942308 0 0 Z " fill="#214E35" transform="translate(345.25,508.3125)"/>
<path d="M0 0 C-1.75 3.875 -1.75 3.875 -4 5 C-4.66 4.67 -5.32 4.34 -6 4 C-5.67 3.01 -5.34 2.02 -5 1 C-2 0 -2 0 0 0 Z " fill="#DDE7E0" transform="translate(365,488)"/>
<path d="M0 0 C0.66 0 1.32 0 2 0 C0.60667426 3.36720387 -0.9789286 4.9859524 -4 7 C-4.33 6.34 -4.66 5.68 -5 5 C-4.34 5 -3.68 5 -3 5 C-2.5359375 4.0409375 -2.5359375 4.0409375 -2.0625 3.0625 C-1 1 -1 1 0 0 Z " fill="#DDECE3" transform="translate(382,471)"/>
<path d="M0 0 C2.46800047 1.15173355 4.04783565 2.04783565 6 4 C5.34 4 4.68 4 4 4 C3.67 4.66 3.34 5.32 3 6 C1.5 4.6875 1.5 4.6875 0 3 C0 2.01 0 1.02 0 0 Z " fill="#DFE9E2" transform="translate(211,446)"/>
<path d="M0 0 C2.31 1.98 4.62 3.96 7 6 C6.01 6.33 5.02 6.66 4 7 C0 2.25 0 2.25 0 0 Z " fill="#3B6A4E" transform="translate(159,398)"/>
<path d="M0 0 C2.475 0.495 2.475 0.495 5 1 C5 2.98 5 4.96 5 7 C2.47411298 4.63707344 1.11179163 3.33537489 0 0 Z " fill="#D9E9DD" transform="translate(93,319)"/>
<path d="M0 0 C0.66 0 1.32 0 2 0 C1.25 2.9375 1.25 2.9375 0 6 C-2.125 6.875 -2.125 6.875 -4 7 C-2.68 4.69 -1.36 2.38 0 0 Z " fill="#3F7154" transform="translate(532,314)"/>
<path d="M0 0 C0.99 0.33 1.98 0.66 3 1 C1.25 5.875 1.25 5.875 -1 7 C-1.04254356 5.00045254 -1.04080783 2.99958364 -1 1 C-0.67 0.67 -0.34 0.34 0 0 Z " fill="#367355" transform="translate(315,155)"/>
<path d="M0 0 C2.97 0.495 2.97 0.495 6 1 C6.33 2.65 6.66 4.3 7 6 C5.83054208 5.19152271 4.66449539 4.37810888 3.5 3.5625 C2.8503125 3.11003906 2.200625 2.65757812 1.53125 2.19140625 C1.0259375 1.79824219 0.520625 1.40507812 0 1 C0 0.67 0 0.34 0 0 Z " fill="#508C6C" transform="translate(502,140)"/>
<path d="M0 0 C1.98 0.99 3.96 1.98 6 3 C5.01 3.66 4.02 4.32 3 5 C1.68 4.34 0.36 3.68 -1 3 C-0.67 2.01 -0.34 1.02 0 0 Z " fill="#E4F6EB" transform="translate(487,130)"/>
</svg>
