<svg width="16" height="16" viewBox="0 0 16 16" fill="none" xmlns="http://www.w3.org/2000/svg">
                <path d="M11.3332 14V12.6667C11.3332 11.1939 10.1393 10 8.6665 10H3.33317C1.86041 10 0.666504 11.1939 0.666504 12.6667V14" stroke="#A5B1C4" stroke-linecap="round" stroke-linejoin="round"></path>
                <path fill-rule="evenodd" clip-rule="evenodd" d="M6.00016 7.33333C7.47292 7.33333 8.66683 6.13943 8.66683 4.66667C8.66683 3.19391 7.47292 2 6.00016 2C4.5274 2 3.3335 3.19391 3.3335 4.66667C3.3335 6.13943 4.5274 7.33333 6.00016 7.33333Z" stroke="#A5B1C4" stroke-linecap="round" stroke-linejoin="round"></path>
                <path d="M15.3335 14V12.6667C15.3326 11.4514 14.5102 10.3905 13.3335 10.0867" stroke="#A5B1C4" stroke-linecap="round" stroke-linejoin="round"></path>
                <path d="M10.6665 2.08667C11.8464 2.38878 12.6717 3.452 12.6717 4.67C12.6717 5.88801 11.8464 6.95122 10.6665 7.25334" stroke="#A5B1C4" stroke-linecap="round" stroke-linejoin="round"></path>
              </svg>