<svg width="16" height="16" viewBox="0 0 16 16" fill="none" xmlns="http://www.w3.org/2000/svg">
<g clip-path="url(#clip0_49_100)">
<path d="M7.75367 14.1826L7.74914 14.1801L7.73342 14.1716C7.72004 14.1643 7.7009 14.1538 7.67638 14.1402C7.62736 14.1128 7.55681 14.0728 7.4678 14.0204C7.28987 13.9157 7.03778 13.7616 6.73622 13.5611C6.13411 13.1609 5.3296 12.5725 4.52294 11.8205C2.92659 10.3324 1.23517 8.12158 1.23517 5.39823C1.23517 3.36666 2.94449 1.75563 5.00786 1.75563C6.22129 1.75563 7.30778 2.31006 8 3.17909C8.69222 2.31006 9.77871 1.75563 10.9921 1.75563C13.0555 1.75563 14.7648 3.36666 14.7648 5.39823C14.7648 8.12158 13.0734 10.3324 11.4771 11.8205C10.6704 12.5725 9.86588 13.1609 9.26378 13.5611C8.96222 13.7616 8.71013 13.9157 8.53219 14.0204C8.44319 14.0728 8.37264 14.1128 8.32362 14.1402C8.2991 14.1538 8.27996 14.1643 8.26658 14.1716L8.25086 14.1801L8.24633 14.1826L8.24441 14.1836C8.0918 14.2646 7.9082 14.2646 7.75558 14.1836L7.75367 14.1826Z" fill="#EF4444"/>
</g>
<defs>
<clipPath id="clip0_49_100">
<rect width="16" height="16" fill="white"/>
</clipPath>
</defs>
</svg>
