<?xml version="1.0" encoding="UTF-8"?>
<svg id="Layer_2" data-name="Layer 2" xmlns="http://www.w3.org/2000/svg" viewBox="0 0 156 156">
  <defs>
    <style>
      .cls-1, .cls-2 {
        stroke: #39cea6;
      }

      .cls-1, .cls-2, .cls-3 {
        fill: none;
        stroke-linecap: round;
        stroke-linejoin: round;
      }

      .cls-1, .cls-3 {
        stroke-width: 6px;
      }

      .cls-2 {
        stroke-width: 4px;
      }

      .cls-3 {
        stroke: #26304b;
      }

      .cls-4 {
        fill: #39cea6;
      }
    </style>
  </defs>
  <g id="Layer_1-2" data-name="Layer 1">
    <g>
      <polygon class="cls-1" points="131.03 99.97 153 78 131.03 56.03 131.03 24.97 99.97 24.97 78 3 56.03 24.97 24.97 24.97 24.97 56.03 3 78 24.97 99.97 24.97 131.03 56.03 131.03 78 153 99.97 131.03 131.03 131.03 131.03 99.97"/>
      <g>
        <polyline class="cls-1" points="42.95 52.82 97.31 52.82 73.95 88.18 87.31 88.18"/>
        <polyline class="cls-3" points="102.31 103.18 47.95 103.18 71.31 67.82 57.95 67.82"/>
        <circle class="cls-4" cx="95.48" cy="88.18" r="3"/>
        <path class="cls-2" d="M111.95,73.57h-6.72l-1.53,5.61s9.35-2.77,9.35,4.59c0,7.77-10.84,6.4-10.45.68"/>
      </g>
    </g>
  </g>
</svg>