<?xml version="1.0" encoding="UTF-8"?>
<svg version="1.1" xmlns="http://www.w3.org/2000/svg" width="500" height="500">
<path d="M0 0 C8.29491094 4.05958565 15.17681892 11.21721326 22.04492188 17.27880859 C25.15780305 20.01929464 28.29352402 22.73278421 31.4375 25.4375 C32.30532104 26.18580078 32.30532104 26.18580078 33.19067383 26.94921875 C36.33355267 29.63986846 39.52429954 32.19294501 42.875 34.625 C43.90625 35.40875 44.9375 36.1925 46 37 C46 37.66 46 38.32 46 39 C46.56740906 38.99111755 47.13481812 38.98223511 47.71942139 38.9730835 C53.62404305 38.88460206 59.52847646 38.82426269 65.43359375 38.78027344 C67.6374476 38.76015581 69.84124807 38.73285828 72.04492188 38.69824219 C75.21237356 38.64973167 78.37911968 38.62703264 81.546875 38.609375 C82.53242371 38.58872986 83.51797241 38.56808472 84.53338623 38.54681396 C88.43538798 38.54553347 91.17236876 38.54683193 94.62890625 40.43945312 C96.73102046 44.36519634 96.49392205 47.9754484 96.390625 52.359375 C96.38496521 53.26375305 96.37930542 54.1681311 96.37347412 55.09991455 C96.35111248 57.98381853 96.30091686 60.86647261 96.25 63.75 C96.22993471 65.70701329 96.21168399 67.66404608 96.1953125 69.62109375 C96.15124839 74.41454289 96.08222252 79.20705965 96 84 C96.55488098 83.99333817 97.10976196 83.98667633 97.68145752 83.97981262 C103.45636196 83.91344502 109.23115807 83.86819359 115.00634766 83.83520508 C117.16166586 83.82011818 119.31695336 83.79964611 121.47216797 83.77368164 C124.57006404 83.73729456 127.66755423 83.72027261 130.765625 83.70703125 C131.72929993 83.69154739 132.69297485 83.67606354 133.68585205 83.66011047 C134.58648376 83.65988388 135.48711548 83.65965729 136.41503906 83.65942383 C137.20557678 83.65276199 137.9961145 83.64610016 138.81060791 83.63923645 C141.59851132 84.09862147 142.95254751 85.07904879 145 87 C146.15188325 90.45564975 146.13172413 93.13410582 146.14044189 96.78097534 C146.14489858 97.82083436 146.14489858 97.82083436 146.1494453 98.88170063 C146.15813306 101.21004566 146.1596406 103.53833926 146.16113281 105.86669922 C146.16576089 107.5338858 146.17078554 109.20107133 146.17617798 110.86825562 C146.18930398 115.40132657 146.19574719 119.9343827 146.20018864 124.46746969 C146.20311871 127.29860859 146.20722337 130.12974342 146.21169281 132.96088028 C146.22536754 141.81620829 146.23503462 150.67152704 146.2388947 159.52686489 C146.24337719 169.75421468 146.26093403 179.98143093 146.2898953 190.20874012 C146.31149753 198.11115159 146.32159818 206.01352546 146.32293582 213.91596615 C146.32398479 218.63727583 146.32991218 223.35845998 146.34775543 228.07973862 C146.36421119 232.52025807 146.36640381 236.9605573 146.35761642 241.40109634 C146.35684474 243.03091267 146.36120606 244.66074071 146.37107468 246.29052734 C146.38375802 248.515634 146.37793771 250.73995636 146.36749268 252.96505737 C146.36895924 254.21019041 146.3704258 255.45532345 146.3719368 256.73818779 C145.96759189 260.28421269 145.13585464 262.16982718 143 265 C139.60047562 266.69976219 135.72133159 266.26651001 131.9765625 266.3515625 C131.07884125 266.37471527 130.18112 266.39786804 129.25619507 266.42172241 C127.35477387 266.46938851 125.45329031 266.51461932 123.55175781 266.55761719 C120.64363609 266.62457094 117.73594544 266.70239385 114.828125 266.78125 C112.98178676 266.82618004 111.13543285 266.87047186 109.2890625 266.9140625 C107.98420395 266.94990952 107.98420395 266.94990952 106.65298462 266.98648071 C105.8388913 267.0033493 105.02479797 267.0202179 104.18603516 267.03759766 C103.47258942 267.05456696 102.75914368 267.07153625 102.02407837 267.08901978 C99.89631955 266.99544009 98.04312429 266.58489244 96 266 C96.02618408 267.18553467 96.05236816 268.37106934 96.0793457 269.5925293 C96.16999021 273.99988866 96.22730088 278.407166 96.2746582 282.81518555 C96.29976999 284.72125107 96.33386645 286.62722059 96.37719727 288.53295898 C96.43799744 291.27611998 96.46624245 294.01800586 96.48828125 296.76171875 C96.52699089 298.03543587 96.52699089 298.03543587 96.56648254 299.33488464 C96.56837536 303.34677174 96.28671603 305.52016339 94.19384766 309.02270508 C89.39027895 311.99657015 84.96581234 311.83063383 79.41015625 311.875 C78.27404404 311.89401367 77.13793182 311.91302734 75.96739197 311.93261719 C73.5609902 311.96229646 71.15438537 311.97823161 68.74780273 311.98144531 C65.1037173 311.99979248 61.4685628 312.10321977 57.82617188 312.2109375 C46.31163661 312.37587708 36.99043077 312.50662691 28.21585083 304.38360596 C26.78234983 302.950076 25.38978597 301.47594994 24 300 C22.45430353 298.66109947 20.89265588 297.34015741 19.30859375 296.046875 C17.34127157 294.37610483 15.38146972 292.70071969 13.44335938 290.99609375 C12.80076172 290.45597656 12.15816406 289.91585938 11.49609375 289.359375 C10.94107178 288.87952148 10.3860498 288.39966797 9.81420898 287.90527344 C7.18109296 286.59137299 5.78778485 287.15978624 3 288 C0.92366177 288.78945808 -1.1340325 289.62887107 -3.17578125 290.50390625 C-4.33271484 290.99697266 -5.48964844 291.49003906 -6.68164062 291.99804688 C-7.87982422 292.51431641 -9.07800781 293.03058594 -10.3125 293.5625 C-11.54213081 294.0883279 -12.77194678 294.61372303 -14.00195312 295.13867188 C-17.00315052 296.42153664 -20.00238815 297.70878448 -23 299 C-23 299.99 -23 300.98 -23 302 C-22.40832031 302.27328125 -21.81664062 302.5465625 -21.20703125 302.828125 C-19.07028324 303.96268147 -17.49021678 305.14949728 -15.6875 306.75 C-14.78644531 307.53890625 -14.78644531 307.53890625 -13.8671875 308.34375 C-12.62239583 309.44791667 -11.37760417 310.55208333 -10.1328125 311.65625 C-9.23175781 312.44515625 -9.23175781 312.44515625 -8.3125 313.25 C-7.77238281 313.72953125 -7.23226562 314.2090625 -6.67578125 314.703125 C-4.87730384 316.09495367 -3.06036289 317.0483727 -1 318 C-0.49210938 317.50628906 0.01578125 317.01257813 0.5390625 316.50390625 C3.56927913 313.68364845 6.12476184 311.34644844 10 309.8125 C14.30906199 310.08181637 17.47264774 311.54720538 21 314 C23.51698153 316.9102599 23.9511702 318.61633731 24.4375 322.4375 C23.55520036 329.62193992 17.99256201 334.34591303 13.0625 339.25 C12.45470703 339.87390625 11.84691406 340.4978125 11.22070312 341.140625 C5.24459197 347.12318288 5.24459197 347.12318288 1 348 C-4.65698824 347.83418073 -7.40730759 346.37235702 -11.5625 342.625 C-12.60492787 341.70753718 -13.64927694 340.79225366 -14.6953125 339.87890625 C-15.23446289 339.40340332 -15.77361328 338.92790039 -16.32910156 338.43798828 C-19.11555644 336.03994339 -22.02863149 333.80903283 -24.9375 331.5625 C-30.319593 327.37734142 -35.56471153 323.05590978 -40.73803711 318.61547852 C-42.15236724 317.40290343 -43.57583325 316.20100672 -45 315 C-45.62173599 314.46491318 -46.24347198 313.92982635 -46.88404846 313.37852478 C-49.35831326 311.7665619 -50.67098609 311.6275553 -53.59741211 311.63110352 C-54.50192612 311.62422012 -55.40644012 311.61733673 -56.33836365 311.61024475 C-57.30822708 311.61640305 -58.27809052 311.62256134 -59.27734375 311.62890625 C-61.3378923 311.61152555 -63.39843914 311.59394115 -65.45898438 311.57617188 C-68.70242442 311.56609374 -71.94575392 311.56250434 -75.18920898 311.56420898 C-78.32308891 311.56063937 -81.45611559 311.53329884 -84.58984375 311.50390625 C-85.55768295 311.51208878 -86.52552216 311.5202713 -87.52268982 311.52870178 C-91.82596942 311.48112285 -94.33188579 311.39894589 -98.08813477 309.15600586 C-101.73524 305.04317399 -101.13053129 300.59029578 -101.09765625 295.39453125 C-101.0962413 294.55532639 -101.09482635 293.71612152 -101.09336853 292.85148621 C-101.08777215 290.17178784 -101.07522035 287.4921731 -101.0625 284.8125 C-101.05748453 282.99544392 -101.05292171 281.17838652 -101.04882812 279.36132812 C-101.03780391 274.90751987 -101.02054178 270.45377411 -101 266 C-102.30670654 266.02094727 -103.61341309 266.04189453 -104.9597168 266.06347656 C-109.81442274 266.13595553 -114.66908098 266.18182875 -119.52416992 266.21972656 C-121.62418667 266.23982397 -123.72414758 266.26710666 -125.82397461 266.30175781 C-128.84502958 266.3503577 -131.86534377 266.37298762 -134.88671875 266.390625 C-136.29167854 266.42159271 -136.29167854 266.42159271 -137.72502136 266.45318604 C-141.88944305 266.45461491 -144.37763156 266.34709675 -148.06958008 264.28808594 C-151.56708788 260.14256386 -151.12868351 255.37920591 -151.14717102 250.13710022 C-151.15268605 249.12023759 -151.15268605 249.12023759 -151.1583125 248.08283228 C-151.16929842 245.81831594 -151.1731844 243.55384557 -151.17700195 241.28930664 C-151.18327022 239.66285559 -151.18991734 238.03640596 -151.19691467 236.40995789 C-151.21790591 231.07670073 -151.22830914 225.74344343 -151.23828125 220.41015625 C-151.24232998 218.57244794 -151.24644694 216.73473979 -151.25063133 214.89703178 C-151.26966835 206.26649822 -151.28390521 197.63597316 -151.2922433 189.00542265 C-151.30202501 179.04577344 -151.32837505 169.08634592 -151.36874419 159.12677485 C-151.39889156 151.42473126 -151.41371067 143.7227513 -151.41702431 136.02064985 C-151.41937541 131.42169211 -151.4283444 126.82297164 -151.45348549 122.22407722 C-151.47674863 117.89920858 -151.48100664 113.57473377 -151.47072411 109.2498188 C-151.47022828 107.66395254 -151.47656242 106.07806699 -151.49028015 104.49225998 C-151.50798252 102.32432947 -151.500903 100.15781522 -151.48774719 97.98988342 C-151.49013555 96.77776719 -151.4925239 95.56565096 -151.49498463 94.31680393 C-150.89838557 90.31909978 -149.50219759 88.13669192 -147 85 C-144.6699002 83.8349501 -143.32752923 83.8790642 -140.73388672 83.88647461 C-139.41274368 83.88658791 -139.41274368 83.88658791 -138.06491089 83.88670349 C-137.11278717 83.89186478 -136.16066345 83.89702606 -135.1796875 83.90234375 C-133.71899338 83.90446617 -133.71899338 83.90446617 -132.22879028 83.90663147 C-129.11082927 83.91224027 -125.9929394 83.92479427 -122.875 83.9375 C-120.76432395 83.94251387 -118.65364678 83.94707697 -116.54296875 83.95117188 C-111.36195479 83.96221255 -106.18098248 83.97895927 -101 84 C-101.01571045 82.8447583 -101.0314209 81.6895166 -101.04760742 80.49926758 C-101.10200369 76.20360313 -101.13638533 71.907969 -101.16479492 67.61206055 C-101.17985946 65.75458655 -101.20031509 63.89714799 -101.22631836 62.03979492 C-101.26280459 59.36628461 -101.2797497 56.69324556 -101.29296875 54.01953125 C-101.30845261 53.19226028 -101.32393646 52.36498932 -101.33988953 51.51264954 C-101.34124372 46.84855123 -101.0424085 43.78486528 -98 40 C-95.6489721 38.82448605 -94.37052325 38.91532613 -91.7565918 38.98510742 C-90.87774826 39.0038945 -89.99890472 39.02268158 -89.09342957 39.04203796 C-87.66079521 39.0734362 -87.66079521 39.0734362 -86.19921875 39.10546875 C-83.10278778 39.12955068 -80.0064059 39.14301776 -76.90991211 39.15649414 C-74.78104724 39.17697795 -72.65227052 39.21698211 -70.52416992 39.27758789 C-56.29346793 39.97484018 -56.29346793 39.97484018 -44.00544739 33.84687805 C-41.50894122 31.35390627 -39.27486249 28.69756682 -37 26 C-35.18144135 24.43676217 -33.3322716 22.90743492 -31.4375 21.4375 C-27.40802874 18.20687436 -23.58866688 14.82965182 -19.8125 11.3125 C-5.98229085 -1.46505082 -5.98229085 -1.46505082 0 0 Z M-3 29 C-3.845625 29.78503906 -4.69125 30.57007812 -5.5625 31.37890625 C-22.20419571 46.80279714 -22.20419571 46.80279714 -27 50 C-27 50.66 -27 51.32 -27 52 C-27.586604 52.24621094 -28.17320801 52.49242188 -28.77758789 52.74609375 C-31.32921468 54.18574608 -32.64322203 55.85720849 -34.55859375 58.0625 C-41.46760926 64.32720273 -50.27701758 63.10493609 -59.0625 63 C-60.80405704 63.00810253 -62.54560128 63.01978952 -64.28710938 63.03515625 C-68.5257205 63.06482156 -72.76155989 63.04579691 -77 63 C-76.99777939 63.85174301 -76.99555878 64.70348602 -76.99327087 65.58103943 C-76.97307206 73.68433748 -76.95792734 81.78762685 -76.94818783 89.89094448 C-76.94301204 94.05499297 -76.93601325 98.21902031 -76.92456055 102.38305664 C-76.91354002 106.41609461 -76.90768346 110.4491125 -76.90512276 114.48216438 C-76.90330247 116.00600563 -76.89974997 117.52984603 -76.89426994 119.05367851 C-76.87709255 124.03724845 -76.9179458 129.01713394 -77 134 C-77.00737812 134.7646117 -77.01475624 135.5292234 -77.02235794 136.31700516 C-77.05294486 138.6334834 -77.11866141 140.94653831 -77.19360352 143.26196289 C-77.19894324 143.96459731 -77.20428297 144.66723173 -77.20978451 145.3911581 C-77.37711004 149.26667898 -77.91612245 150.89897871 -80.42539978 153.92112732 C-84.49570842 157.20771658 -86.76995091 157.26150245 -92 157 C-95.3125 156.375 -95.3125 156.375 -98 155 C-100.33656194 149.90831286 -100.34078818 144.93781982 -100.4140625 139.4453125 C-100.43342865 138.54376434 -100.4527948 137.64221619 -100.4727478 136.71334839 C-100.53224296 133.85066004 -100.57880817 130.98793082 -100.625 128.125 C-100.66320747 126.17706637 -100.7022608 124.22914914 -100.7421875 122.28125 C-100.83950256 117.52092152 -100.91930924 112.7607551 -101 108 C-109.25 108 -117.5 108 -126 108 C-126 119.22 -126 130.44 -126 142 C-125.34 142 -124.68 142 -124 142 C-123.72760498 142.73573242 -123.45520996 143.47146484 -123.17456055 144.22949219 C-122.06018946 146.85802744 -120.81952347 148.98142743 -119.20703125 151.328125 C-118.38428711 152.52888672 -118.38428711 152.52888672 -117.54492188 153.75390625 C-116.97322266 154.57761719 -116.40152344 155.40132813 -115.8125 156.25 C-115.26013672 157.05824219 -114.70777344 157.86648437 -114.13867188 158.69921875 C-110.8018952 163.5435519 -107.30933761 168.22084336 -103.67211914 172.84277344 C-101.10757388 176.15133263 -98.70659397 179.56704543 -96.3125 183 C-93.11008462 187.5843535 -89.89827392 192.15638618 -86.59375 196.66796875 C-85.76943481 197.80395508 -85.76943481 197.80395508 -84.9284668 198.96289062 C-83.87595253 200.41182702 -82.81528867 201.85488944 -81.74536133 203.29101562 C-81.2686499 203.95166016 -80.79193848 204.61230469 -80.30078125 205.29296875 C-79.87966064 205.8655542 -79.45854004 206.43813965 -79.0246582 207.02807617 C-76.6927265 211.51580845 -76.87877728 216.54322969 -76.90234375 221.4921875 C-76.90556641 222.69101562 -76.90878906 223.88984375 -76.91210938 225.125 C-76.92467773 226.98125 -76.92467773 226.98125 -76.9375 228.875 C-76.94201172 230.13570312 -76.94652344 231.39640625 -76.95117188 232.6953125 C-76.9629204 235.79692386 -76.97934833 238.89843725 -77 242 C-76.02651611 242.01458252 -75.05303223 242.02916504 -74.05004883 242.04418945 C-70.42484524 242.10233296 -66.8002524 242.17956377 -63.17553711 242.26245117 C-61.60923199 242.29562532 -60.04280949 242.32368058 -58.47631836 242.34643555 C-56.21938237 242.38012116 -53.96351474 242.43244049 -51.70703125 242.48828125 C-51.01100296 242.49467117 -50.31497467 242.5010611 -49.59785461 242.50764465 C-45.25018407 242.63797564 -42.45562336 243.330837 -39 246 C-36.17631429 250.23552856 -36.33346243 254.02477314 -37 259 C-38.79646854 261.93423195 -39.9441071 263.47205355 -43 265 C-45.37251533 265.14347505 -47.7487785 265.22661086 -50.125 265.28125 C-50.8277002 265.29965942 -51.53040039 265.31806885 -52.25439453 265.33703613 C-55.2651437 265.41576492 -58.27611923 265.48346387 -61.28710938 265.55224609 C-63.48318545 265.60396872 -65.67906963 265.66122075 -67.875 265.71875 C-69.19242188 265.74904297 -70.50984375 265.77933594 -71.8671875 265.81054688 C-74.90413312 265.78856352 -74.90413312 265.78856352 -77 267 C-77 273.6 -77 280.2 -77 287 C-73.761875 287.185625 -70.52375 287.37125 -67.1875 287.5625 C-66.21192139 287.64443604 -65.23634277 287.72637207 -64.23120117 287.81079102 C-54.51399704 288.0690156 -46.9431061 283.52029993 -38.51919556 279.24594116 C-34.45531234 277.23602996 -30.30410616 275.44051825 -26.140625 273.6484375 C-25.32580154 273.29528976 -24.51097809 272.94214203 -23.67146301 272.57829285 C-21.19886928 271.50766118 -18.72462862 270.44091885 -16.25 269.375 C-5.88294288 264.90333325 4.44689682 260.38778915 14.65917969 255.57177734 C19.33369812 253.37252642 24.03798622 251.24242391 28.75 249.125 C29.61109375 248.73570312 30.4721875 248.34640625 31.359375 247.9453125 C32.184375 247.5740625 33.009375 247.2028125 33.859375 246.8203125 C34.58608398 246.49305176 35.31279297 246.16579102 36.06152344 245.82861328 C40.23213078 244.04586248 43.47144291 243.68768572 48 244 C50.78901573 245.23956255 52.44350587 246.28450754 54.3125 248.6875 C55.66393749 253.23324427 55.77247895 257.21502186 53.90625 261.52734375 C51.48689437 264.6655653 48.71306646 266.03018878 45.1875 267.625 C44.58357422 267.91117188 43.97964844 268.19734375 43.35742188 268.4921875 C41.57541456 269.33619527 39.78774542 270.16821547 38 271 C35.99683406 271.9936429 33.995703 272.99145177 32 274 C33.07619405 275.14794032 34.17256567 276.27906834 35.3203125 277.35546875 C37 279 37 279 38.6796875 281.11328125 C42.11765751 284.76531354 44.83805417 286.7757995 49.85140991 287.29570007 C53.20497426 287.36261916 56.53768207 287.3213418 59.890625 287.23046875 C61.05480957 287.21383179 62.21899414 287.19719482 63.41845703 287.18005371 C66.27969583 287.1367683 69.13948088 287.07623413 72 287 C72.00142502 285.98602142 72.00285004 284.97204285 72.00431824 283.92733765 C72.02100018 274.36349375 72.06381032 264.80007469 72.13209057 255.23645592 C72.16635638 250.31984757 72.19146992 245.40354981 72.19555664 240.48681641 C72.19984046 235.74030051 72.22831005 230.99448522 72.27343178 226.24818802 C72.28640412 224.43898222 72.29071538 222.62969257 72.28615379 220.82044601 C72.28124576 218.28236342 72.30734663 215.74632689 72.34057617 213.20849609 C72.33195053 212.46330719 72.32332489 211.71811829 72.31443787 210.9503479 C72.43993975 205.21843373 74.07099933 202.87681694 78 199 C81.73974432 197.13012784 86.46790828 197.69358166 90.5 198.5 C90.995 198.665 91.49 198.83 92 199 C92 199.66 92 200.32 92 201 C92.66 201 93.32 201 94 201 C95.28774446 204.86323338 95.23382793 208.57490537 95.31640625 212.60546875 C95.3475779 213.86427605 95.3475779 213.86427605 95.37937927 215.14851379 C95.44474018 217.82809294 95.50369714 220.50776969 95.5625 223.1875 C95.60569802 225.00456737 95.64931273 226.82162488 95.69335938 228.63867188 C95.80119168 233.09234934 95.90036495 237.54610139 96 242 C104.58 242 113.16 242 122 242 C123.28877725 220.47493446 123.28877725 220.47493446 112.64257812 202.99267578 C109.66685866 199.38271409 107.15567426 195.45109119 104.5625 191.5625 C98.47887633 182.63461989 92.26349017 173.8022801 86 165 C85.52336914 164.3296875 85.04673828 163.659375 84.55566406 162.96875 C83.18409882 161.04083949 81.81127299 159.11383784 80.4375 157.1875 C80.03184814 156.61862061 79.62619629 156.04974121 79.20825195 155.46362305 C76.96528178 152.29087606 76.96528178 152.29087606 74.40332031 149.37915039 C72.25774412 145.74159994 72.52015588 142.2305179 72.48828125 138.078125 C72.47033005 137.21813904 72.45237885 136.35815308 72.43388367 135.47210693 C72.37979962 132.73145416 72.34589137 129.99097535 72.3125 127.25 C72.27932521 125.38929872 72.2448354 123.52862039 72.20898438 121.66796875 C72.12407431 117.11210472 72.05725416 112.55629212 72 108 C70.49433472 107.99383667 70.49433472 107.99383667 68.95825195 107.98754883 C65.22108156 107.96571688 61.48495799 107.91138706 57.74829102 107.84741211 C56.13348451 107.82426714 54.51852779 107.80984457 52.90356445 107.80444336 C50.57668852 107.79512726 48.25216324 107.75408632 45.92578125 107.70703125 C44.84892815 107.71293022 44.84892815 107.71293022 43.75032043 107.71894836 C39.82062176 107.60548624 38.13779215 107.11240277 35.05322266 104.59619141 C32.04877159 100.79722201 31.85839979 97.73111298 32 93 C32.625 89.5625 32.625 89.5625 34 87 C38.10294684 84.78834076 42.1464004 84.66162522 46.70703125 84.5859375 C47.79512337 84.55688828 47.79512337 84.55688828 48.90519714 84.5272522 C51.20751422 84.46777892 53.50988219 84.42120155 55.8125 84.375 C57.37957832 84.33679042 58.94663631 84.29773697 60.51367188 84.2578125 C64.34233825 84.16052505 68.1708049 84.08070406 72 84 C72 77.07 72 70.14 72 63 C53.31782335 61.59061534 40.55847732 64.45517907 24 73 C21.57435282 74.1734935 19.1327311 75.30468107 16.6875 76.4375 C15.54152344 76.98019531 14.39554688 77.52289063 13.21484375 78.08203125 C6.37712856 81.24575022 -0.60201407 84.09972381 -7.55200195 87.00561523 C-15.27384225 90.23971882 -22.91910019 93.60875428 -30.49414062 97.17382812 C-32.86157761 98.28398219 -35.24127989 99.36283952 -37.625 100.4375 C-38.79675781 101.00114258 -38.79675781 101.00114258 -39.9921875 101.57617188 C-45.17357455 103.87090869 -48.60874938 104.24850209 -54.1105957 102.8190918 C-57.52208832 101.34014649 -58.57890205 99.33649083 -60 96 C-60.58940153 93.15500416 -60.82818746 90.79834769 -60 88 C-56.29478408 82.43125702 -52.33370746 80.32310294 -46.25 77.8125 C-45.37657959 77.43577148 -44.50315918 77.05904297 -43.60327148 76.67089844 C-41.71780912 75.85794497 -39.82959766 75.05134358 -37.93896484 74.25048828 C-32.95910322 72.13162707 -28.01363879 69.93491709 -23.0625 67.75 C-22.04196533 67.30205078 -21.02143066 66.85410156 -19.9699707 66.39257812 C-6.94468586 60.67420916 6.02644589 54.83453403 19 49 C17.69698403 46.07017881 16.39420896 44.19604547 13.953125 42.125 C13.355 41.61453125 12.756875 41.1040625 12.140625 40.578125 C11.20476562 39.79695313 11.20476562 39.79695313 10.25 39 C9.6415625 38.47921875 9.033125 37.9584375 8.40625 37.421875 C4.75404245 34.33154553 1.03302416 31.57321787 -3 29 Z M96 108 C93.78933015 128.41518558 93.78933015 128.41518558 101 146.625 C102.47624979 148.28730557 103.98472797 149.89085868 105.5546875 151.46484375 C107.90823483 153.96469267 109.6409327 156.73928359 111.5 159.625 C112.1084375 160.54539063 112.716875 161.46578125 113.34375 162.4140625 C114.48020406 164.18843181 115.56143628 165.99902632 116.59375 167.8359375 C117.0578125 168.55007812 117.521875 169.26421875 118 170 C118.66 170 119.32 170 120 170 C120.33 170.99 120.66 171.98 121 173 C121.33 173 121.66 173 122 173 C122 151.55 122 130.1 122 108 C113.42 108 104.84 108 96 108 Z M-126 184 C-126 203.14 -126 222.28 -126 242 C-117.75 242 -109.5 242 -101 242 C-99.82352829 224.84312088 -100.03016431 216.01088412 -111.25830078 203.08691406 C-114.33688131 199.3981411 -116.97682301 195.39973576 -119.6875 191.4375 C-121.4253989 188.92903862 -123.18876406 186.45700767 -125 184 C-125.33 184 -125.66 184 -126 184 Z " fill="#22B97F" transform="translate(253,73)"/>
<path d="M0 0 C0.680625 0.5775 1.36125 1.155 2.0625 1.75 C5.25896365 4.19835514 8.47463438 6.06450515 12 8 C12 8.66 12 9.32 12 10 C12.78375 10.144375 13.5675 10.28875 14.375 10.4375 C17 11 17 11 19 12 C19 12.66 19 13.32 19 14 C21.475 14.495 21.475 14.495 24 15 C25.31134718 18.90313437 25.03043509 22.77542704 24.87890625 26.828125 C24.85529526 27.57713074 24.83168427 28.32613647 24.80735779 29.09783936 C24.73099344 31.48209888 24.64685283 33.86601105 24.5625 36.25 C24.50925201 37.86977486 24.4565118 39.48956651 24.40429688 41.109375 C24.27541537 45.07313521 24.13956072 49.03660201 24 53 C24.66 53 25.32 53 26 53 C27.33984375 54.87890625 27.33984375 54.87890625 28.9375 57.5625 C31.83236287 62.24571824 34.90404935 66.70665171 38.1875 71.125 C42.15463681 76.47287275 46.04949029 81.86232937 49.875 87.3125 C54.73399612 94.23235589 59.66218872 101.09913007 64.63623047 107.93676758 C65.64466868 109.32626657 66.64897724 110.71877537 67.6484375 112.11474609 C68.85702446 113.80056771 70.08359182 115.47346523 71.3125 117.14453125 C74.13790827 121.9254883 74.12466072 126.81853447 74.09765625 132.2734375 C74.09282227 134.00400391 74.09282227 134.00400391 74.08789062 135.76953125 C74.07532227 137.55423828 74.07532227 137.55423828 74.0625 139.375 C74.05798828 140.58800781 74.05347656 141.80101562 74.04882812 143.05078125 C74.03708354 146.03390507 74.0206584 149.01692679 74 152 C75.40693115 152.01401855 75.40693115 152.01401855 76.84228516 152.02832031 C80.34286324 152.07249438 83.84224303 152.13417667 87.34228516 152.20751953 C88.85323938 152.23563782 90.36433821 152.25689771 91.87548828 152.27099609 C94.05576103 152.29255449 96.23431219 152.33926316 98.4140625 152.390625 C99.7232666 152.41157227 101.0324707 152.43251953 102.38134766 152.45410156 C106.56787253 153.08566745 108.73278663 154.35084302 112 157 C114.82792793 161.2418919 114.78122286 165.01873743 114 170 C112.31987353 173.12291165 110.21670326 175.39164837 107 177 C104.44893971 177.15644172 101.92081337 177.25821389 99.3671875 177.31640625 C98.61535187 177.33718735 97.86351624 177.35796844 97.08889771 177.37937927 C94.68435915 177.44482705 92.27971033 177.50373738 89.875 177.5625 C88.24608229 177.60568977 86.61717578 177.64930421 84.98828125 177.69335938 C80.99229894 177.80130385 76.99623436 177.90041198 73 178 C73 184.6 73 191.2 73 198 C77.8571875 198.0309375 77.8571875 198.0309375 82.8125 198.0625 C84.27586792 198.10709351 84.27586792 198.10709351 85.76879883 198.15258789 C95.41437157 197.94587736 103.06265172 193.47750393 111.48080444 189.23788452 C115.54833167 187.23917943 119.69801269 185.44146266 123.859375 183.6484375 C124.67419846 183.29524948 125.48902191 182.94206146 126.32853699 182.57817078 C128.80115998 181.50764853 131.27538664 180.44091228 133.75 179.375 C144.11705712 174.90333325 154.44689682 170.38778915 164.65917969 165.57177734 C169.33369812 163.37252642 174.03798622 161.24242391 178.75 159.125 C179.61109375 158.73570312 180.4721875 158.34640625 181.359375 157.9453125 C182.184375 157.5740625 183.009375 157.2028125 183.859375 156.8203125 C184.58608398 156.49305176 185.31279297 156.16579102 186.06152344 155.82861328 C190.23213078 154.04586248 193.47144291 153.68768572 198 154 C202.14798495 155.79117532 204.2414131 157.83492576 206 162 C206.58321819 165.93872009 206.38684912 169.05436881 204.875 172.75 C200.86173523 177.56591772 195.29701754 179.92909094 189.625 182.25 C188.98433594 182.518125 188.34367188 182.78625 187.68359375 183.0625 C186.1247365 183.71396273 184.56269465 184.35779672 183 185 C184.62483347 186.72966144 186.2788287 188.36834588 188 190 C188.59683594 190.58910156 189.19367188 191.17820312 189.80859375 191.78515625 C196.25553801 197.52525218 201.6305485 198.02021389 210.0625 197.9375 C211.79016602 197.96166992 211.79016602 197.96166992 213.55273438 197.98632812 C216.36972015 198.02139434 219.18301845 198.02524578 222 198 C221.9800145 196.48236305 221.9800145 196.48236305 221.95962524 194.93406677 C221.83784116 185.38561491 221.74797845 175.83732122 221.68912697 166.28826809 C221.65785292 161.37926733 221.61545221 156.47089498 221.54736328 151.56225586 C221.48203011 146.82246311 221.44626442 142.08327364 221.43073654 137.34306526 C221.41967516 135.53733895 221.39807409 133.73164459 221.36561966 131.92617607 C221.32186832 129.39074002 221.31607333 126.85777605 221.31884766 124.32202148 C221.297276 123.58042786 221.27570435 122.83883423 221.253479 122.07476807 C221.31561466 116.80450378 222.93369169 114.15963634 226.51613426 110.33633518 C229.48608105 107.66166976 232.11322241 107.79648384 236.0234375 107.83203125 C238.37915131 108.03222037 240.03599056 108.69066037 242 110 C242 110.66 242 111.32 242 112 C242.66 112 243.32 112 244 112 C246.58995441 115.88493162 246.25225542 119.10567236 246.1953125 123.60546875 C246.1924826 124.44467361 246.18965271 125.28387848 246.18673706 126.14851379 C246.17554385 128.82832103 246.15044101 131.50779381 246.125 134.1875 C246.11496908 136.00455246 246.10584343 137.82161017 246.09765625 139.63867188 C246.07730902 144.09268038 246.03815926 148.54596589 246 153 C254.58 153 263.16 153 272 153 C272 153.33 272 153.66 272 154 C265.73 154.33 259.46 154.66 253 155 C255.19324577 157.19324577 257.28675645 157.97801469 260.1171875 159.14453125 C263.62244372 160.73716841 267.24280069 162.48560137 269 166 C271.02463255 166.65213292 271.02463255 166.65213292 273 167 C273 167.66 273 168.32 273 169 C273.99 169 274.98 169 276 169 C277.02196992 169.97753644 278.01979625 170.9805881 279 172 C282.30774106 174.08127527 284.88333549 174.21706344 288.75 174.125 C289.73484375 174.10695313 290.7196875 174.08890625 291.734375 174.0703125 C292.48203125 174.04710937 293.2296875 174.02390625 294 174 C292.43731487 175.84395814 291.51129784 176.89033388 289.1096344 177.40545654 C288.40000046 177.41957581 287.69036652 177.43369507 286.95922852 177.44824219 C285.74765831 177.48277496 285.74765831 177.48277496 284.51161194 177.51800537 C283.64281906 177.52753235 282.77402618 177.53705933 281.87890625 177.546875 C280.98259995 177.56719788 280.08629364 177.58752075 279.16282654 177.60845947 C277.26745691 177.64866475 275.37192684 177.68183132 273.47631836 177.70849609 C270.57679233 177.74979642 267.6783442 177.81243128 264.77929688 177.87890625 C262.93752437 177.91531691 261.09572738 177.95051355 259.25390625 177.984375 C258.3871376 178.0019989 257.52036896 178.0196228 256.62733459 178.03778076 C255.81646896 178.04819397 255.00560333 178.05860718 254.17016602 178.06933594 C253.10452171 178.08574127 253.10452171 178.08574127 252.01734924 178.10247803 C249.89763069 177.99479981 248.03705274 177.58049865 246 177 C246.02618408 178.18553467 246.05236816 179.37106934 246.0793457 180.5925293 C246.16999021 184.99988866 246.22730088 189.407166 246.2746582 193.81518555 C246.29976999 195.72125107 246.33386645 197.62722059 246.37719727 199.53295898 C246.43799744 202.27611998 246.46624245 205.01800586 246.48828125 207.76171875 C246.51408768 208.61086349 246.5398941 209.46000824 246.56648254 210.33488464 C246.56837536 214.34677174 246.28671603 216.52016339 244.19384766 220.02270508 C239.39027895 222.99657015 234.96581234 222.83063383 229.41015625 222.875 C228.27404404 222.89401367 227.13793182 222.91302734 225.96739197 222.93261719 C223.5609902 222.96229646 221.15438537 222.97823161 218.74780273 222.98144531 C215.1037173 222.99979248 211.4685628 223.10321977 207.82617188 223.2109375 C196.31163661 223.37587708 186.99043077 223.50662691 178.21585083 215.38360596 C176.78234983 213.950076 175.38978597 212.47594994 174 211 C172.45430353 209.66109947 170.89265588 208.34015741 169.30859375 207.046875 C167.34127157 205.37610483 165.38146972 203.70071969 163.44335938 201.99609375 C162.80076172 201.45597656 162.15816406 200.91585937 161.49609375 200.359375 C160.94107178 199.87952148 160.3860498 199.39966797 159.81420898 198.90527344 C157.18109296 197.59137299 155.78778485 198.15978624 153 199 C150.92366177 199.78945808 148.8659675 200.62887107 146.82421875 201.50390625 C145.66728516 201.99697266 144.51035156 202.49003906 143.31835938 202.99804688 C142.12017578 203.51431641 140.92199219 204.03058594 139.6875 204.5625 C138.45786919 205.0883279 137.22805322 205.61372303 135.99804688 206.13867188 C132.99684948 207.42153664 129.99761185 208.70878448 127 210 C127 210.99 127 211.98 127 213 C127.59167969 213.27328125 128.18335938 213.5465625 128.79296875 213.828125 C130.92971676 214.96268147 132.50978322 216.14949728 134.3125 217.75 C135.21355469 218.53890625 135.21355469 218.53890625 136.1328125 219.34375 C137.37760417 220.44791667 138.62239583 221.55208333 139.8671875 222.65625 C140.76824219 223.44515625 140.76824219 223.44515625 141.6875 224.25 C142.22761719 224.72953125 142.76773438 225.2090625 143.32421875 225.703125 C145.12269616 227.09495367 146.93963711 228.0483727 149 229 C149.50789062 228.50628906 150.01578125 228.01257813 150.5390625 227.50390625 C153.56927913 224.68364845 156.12476184 222.34644844 160 220.8125 C164.30906199 221.08181637 167.47264774 222.54720538 171 225 C173.51698153 227.9102599 173.9511702 229.61633731 174.4375 233.4375 C173.55520036 240.62193992 167.99256201 245.34591303 163.0625 250.25 C162.45470703 250.87390625 161.84691406 251.4978125 161.22070312 252.140625 C155.24459197 258.12318288 155.24459197 258.12318288 151 259 C145.34301176 258.83418073 142.59269241 257.37235702 138.4375 253.625 C137.39507213 252.70753718 136.35072306 251.79225366 135.3046875 250.87890625 C134.76553711 250.40340332 134.22638672 249.92790039 133.67089844 249.43798828 C130.88444356 247.03994339 127.97136851 244.80903283 125.0625 242.5625 C119.680407 238.37734142 114.43528847 234.05590978 109.26196289 229.61547852 C107.84763276 228.40290343 106.42416675 227.20100672 105 226 C104.37826401 225.46491318 103.75652802 224.92982635 103.11595154 224.37852478 C100.64168674 222.7665619 99.32901391 222.6275553 96.40258789 222.63110352 C95.49807388 222.62422012 94.59355988 222.61733673 93.66163635 222.61024475 C92.69177292 222.61640305 91.72190948 222.62256134 90.72265625 222.62890625 C88.6621077 222.61152555 86.60156086 222.59394115 84.54101562 222.57617188 C81.29757558 222.56609374 78.05424608 222.56250434 74.81079102 222.56420898 C71.67691109 222.56063937 68.54388441 222.53329884 65.41015625 222.50390625 C64.44231705 222.51208878 63.47447784 222.5202713 62.47731018 222.52870178 C58.17403058 222.48112285 55.66811421 222.39894589 51.91186523 220.15600586 C48.26476 216.04317399 48.86946871 211.59029578 48.90234375 206.39453125 C48.9037587 205.55532639 48.90517365 204.71612152 48.90663147 203.85148621 C48.91222785 201.17178784 48.92477965 198.4921731 48.9375 195.8125 C48.94251547 193.99544392 48.94707829 192.17838652 48.95117188 190.36132812 C48.96219609 185.90751987 48.97945822 181.45377411 49 177 C47.69329346 177.02094727 46.38658691 177.04189453 45.0402832 177.06347656 C40.18557726 177.13595553 35.33091902 177.18182875 30.47583008 177.21972656 C28.37581333 177.23982397 26.27585242 177.26710666 24.17602539 177.30175781 C21.15497042 177.3503577 18.13465623 177.37298762 15.11328125 177.390625 C13.70832146 177.42159271 13.70832146 177.42159271 12.27497864 177.45318604 C8.11055695 177.45461491 5.62236844 177.34709675 1.93041992 175.28808594 C-1.57689095 171.13094448 -1.12535553 166.36528709 -1.12698364 161.11018372 C-1.12854363 160.42945303 -1.13010362 159.74872235 -1.13171089 159.04736346 C-1.13568962 156.77349678 -1.13254342 154.49969722 -1.12939453 152.22583008 C-1.13074992 150.59289002 -1.13253063 148.95995028 -1.13470459 147.32701111 C-1.13926145 142.89755447 -1.13749682 138.46812114 -1.1343255 134.0386641 C-1.13179419 129.40579557 -1.13414148 124.77292904 -1.13571167 120.14006042 C-1.13753056 112.36330812 -1.13513383 104.58656532 -1.13037109 96.80981445 C-1.12492328 87.81032833 -1.12669603 78.81086484 -1.1321975 69.81137925 C-1.13672977 62.08901615 -1.13737879 54.36665987 -1.13475883 46.64429587 C-1.13319743 42.02991247 -1.13299869 37.41553972 -1.13629532 32.801157 C-1.13917588 28.46655652 -1.13719493 24.13198537 -1.13140106 19.79738808 C-1.13007471 18.20340524 -1.13046548 16.60941995 -1.13266373 15.01543808 C-1.13537995 12.84654677 -1.13198836 10.67775054 -1.12698364 8.50886536 C-1.12660662 7.29306195 -1.12622959 6.07725855 -1.12584114 4.82461262 C-1 2 -1 2 0 0 Z M24 95 C24 114.14 24 133.28 24 153 C32.25 153 40.5 153 49 153 C50.17647171 135.84312088 49.96983569 127.01088412 38.74169922 114.08691406 C35.66311869 110.3981411 33.02317699 106.39973576 30.3125 102.4375 C28.5746011 99.92903862 26.81123594 97.45700767 25 95 C24.67 95 24.34 95 24 95 Z " fill="#1D9168" transform="translate(103,162)"/>
<path d="M0 0 C0.69174316 -0.00511093 1.38348633 -0.01022186 2.09619141 -0.01548767 C4.37297322 -0.02933759 6.64945071 -0.02843024 8.92626953 -0.02612305 C10.51661287 -0.03001287 12.10695517 -0.03434814 13.69729614 -0.03910828 C17.02772389 -0.04656086 20.35804563 -0.04628648 23.68847656 -0.04101562 C27.94426048 -0.03522613 32.19960846 -0.05214382 36.45532036 -0.0753603 C39.73941562 -0.0901348 43.02340684 -0.09096424 46.30752945 -0.08785057 C47.87592557 -0.08836204 49.44432778 -0.093567 51.0126915 -0.10366249 C53.21186903 -0.11608049 55.41020959 -0.10920381 57.609375 -0.09765625 C58.85782196 -0.09828568 60.10626892 -0.0989151 61.39254761 -0.0995636 C66.21397953 0.40990058 70.31665309 1.65389436 73.82861328 5.1730957 C75.93824614 9.1836345 75.93407884 12.90200135 74.93408203 17.2746582 C72.68888008 21.02175261 70.11273609 24.27472365 66.93408203 27.2746582 C66.27408203 27.2746582 65.61408203 27.2746582 64.93408203 27.2746582 C64.6660376 27.8648877 64.39799316 28.45511719 64.12182617 29.06323242 C62.92459209 31.29232724 61.67157008 32.83340603 59.93017578 34.6574707 C59.35460937 35.26719727 58.77904297 35.87692383 58.18603516 36.50512695 C57.58726562 37.13032227 56.98849609 37.75551758 56.37158203 38.3996582 C55.18075877 39.65034103 53.99186093 40.90286082 52.80517578 42.1574707 C52.27851318 42.70806152 51.75185059 43.25865234 51.20922852 43.82592773 C49.83170399 45.26670309 49.83170399 45.26670309 48.93408203 47.2746582 C48.27408203 47.2746582 47.61408203 47.2746582 46.93408203 47.2746582 C46.68658203 47.8315332 46.43908203 48.3884082 46.18408203 48.9621582 C44.70483385 51.69876734 42.99940764 53.9511669 40.93408203 56.2746582 C40.27408203 56.2746582 39.61408203 56.2746582 38.93408203 56.2746582 C38.71880859 56.80833008 38.50353516 57.34200195 38.28173828 57.8918457 C36.43831359 61.15123428 33.9339483 63.70277591 31.37158203 66.3996582 C27.74774296 70.03869227 27.74774296 70.03869227 24.93408203 74.2746582 C26.17496582 74.28400391 27.41584961 74.29334961 28.69433594 74.30297852 C33.31286069 74.34295104 37.93072441 74.40873027 42.54882812 74.48217773 C44.54483528 74.51034523 46.5409531 74.53158072 48.53710938 74.5456543 C51.41219567 74.56714224 54.28595732 74.61382246 57.16064453 74.6652832 C58.04837555 74.66651184 58.93610657 74.66774048 59.85073853 74.66900635 C65.34648909 74.79795243 68.5929213 75.58454492 72.93408203 79.2746582 C75.82453419 83.37723546 76.41041052 86.54341133 75.58642578 91.3762207 C74.28495051 95.16374754 71.43177124 97.5258136 67.93408203 99.2746582 C65.49459418 99.3934181 63.08272261 99.45294199 60.64208984 99.4675293 C59.89065704 99.47570679 59.13922424 99.48388428 58.36502075 99.49230957 C55.8724243 99.51716855 53.37988488 99.53368206 50.88720703 99.5480957 C50.03599022 99.55341938 49.18477341 99.55874306 48.30776215 99.56422806 C43.80104981 99.59096365 39.29436519 99.61033598 34.78759766 99.62475586 C30.13575814 99.64139203 25.4846287 99.68615948 20.8330574 99.7371273 C17.25391847 99.77081105 13.67494772 99.78233456 10.09566498 99.78798294 C8.38125949 99.79469386 6.666865 99.80991191 4.95261383 99.83387375 C2.54904161 99.86555003 0.14737912 99.86555912 -2.25634766 99.8581543 C-2.96099152 99.87455963 -3.66563538 99.89096497 -4.39163208 99.90786743 C-9.99322098 99.83744366 -12.2690132 98.09240233 -16.06591797 94.2746582 C-17.88890777 90.6286786 -17.99777391 87.22452501 -17.06591797 83.2746582 C-14.46737146 79.53528639 -11.29892799 76.46615285 -8.06591797 73.2746582 C-6.88529643 71.95366552 -5.71735658 70.62116406 -4.56591797 69.2746582 C-1.06832305 65.25160302 2.51885392 61.31234865 6.11376953 57.3762207 C7.9708487 55.40742399 7.9708487 55.40742399 8.93408203 53.2746582 C9.59408203 53.2746582 10.25408203 53.2746582 10.93408203 53.2746582 C11.20663818 52.67991699 11.47919434 52.08517578 11.76000977 51.47241211 C12.90208252 49.33455831 14.05700935 47.85854064 15.71923828 46.1105957 C16.2496875 45.54598633 16.78013672 44.98137695 17.32666016 44.3996582 C17.87773437 43.8221582 18.42880859 43.2446582 18.99658203 42.6496582 C22.89978933 38.78139511 22.89978933 38.78139511 25.93408203 34.2746582 C26.59408203 34.2746582 27.25408203 34.2746582 27.93408203 34.2746582 C28.20220703 33.6971582 28.47033203 33.1196582 28.74658203 32.5246582 C29.95209006 30.24053772 31.36543726 28.32034289 32.93408203 26.2746582 C31.69319824 26.2653125 30.45231445 26.2559668 29.17382812 26.24633789 C24.55530337 26.20636537 19.93743965 26.14058613 15.31933594 26.06713867 C13.32332879 26.03897117 11.32721097 26.01773568 9.33105469 26.00366211 C6.45596839 25.98217417 3.58220674 25.93549394 0.70751953 25.8840332 C-0.18021149 25.88280457 -1.0679425 25.88157593 -1.98257446 25.88031006 C-7.47452257 25.75145319 -10.73667941 24.97582506 -15.06591797 21.2746582 C-18.03572658 16.81994529 -17.81517988 12.49655501 -17.06591797 7.2746582 C-12.6093565 1.03547215 -7.34244331 0.02713185 0 0 Z " fill="#24B97E" transform="translate(222.06591796875,200.725341796875)"/>
<path d="M0 0 C1.2684375 1.11375 1.2684375 1.11375 2.5625 2.25 C5.8426178 4.98858892 9.25034889 6.95473576 13 9 C13.9075 9.5775 14.815 10.155 15.75 10.75 C18.00809405 12.24282147 18.00809405 12.24282147 21 12 C19.35044362 16.08931941 16.42596684 18.97964822 13.4375 22.125 C9.81366093 25.76403407 9.81366093 25.76403407 7 30 C8.24088379 30.0093457 9.48176758 30.01869141 10.76025391 30.02832031 C15.37877866 30.06829283 19.99664238 30.13407207 24.61474609 30.20751953 C26.61075325 30.23568703 28.60687106 30.25692252 30.60302734 30.27099609 C33.47811364 30.29248403 36.35187529 30.33916426 39.2265625 30.390625 C40.11429352 30.39185364 41.00202454 30.39308228 41.91665649 30.39434814 C47.41240705 30.52329423 50.65883927 31.30988671 55 35 C57.89045216 39.10257725 58.47632849 42.26875313 57.65234375 47.1015625 C56.35086848 50.88908934 53.49768921 53.25115539 50 55 C47.56051215 55.11875989 45.14864058 55.17828378 42.70800781 55.19287109 C41.95657501 55.20104858 41.20514221 55.20922607 40.43093872 55.21765137 C37.93834227 55.24251034 35.44580285 55.25902385 32.953125 55.2734375 C32.10190819 55.27876118 31.25069138 55.28408485 30.37368011 55.28956985 C25.86696777 55.31630545 21.36028316 55.33567777 16.85351562 55.35009766 C12.20167611 55.36673383 7.55054667 55.41150127 2.89897537 55.4624691 C-0.68016356 55.49615285 -4.25913431 55.50767636 -7.83841705 55.51332474 C-9.55282255 55.52003566 -11.26721703 55.53525371 -12.9814682 55.55921555 C-15.38504042 55.59089183 -17.78670291 55.59090092 -20.19042969 55.58349609 C-20.89507355 55.59990143 -21.59971741 55.61630676 -22.32571411 55.63320923 C-27.92730301 55.56278545 -30.20309523 53.81774413 -34 50 C-35.8229898 46.3540204 -35.93185594 42.94986681 -35 39 C-32.40145349 35.26062819 -29.23301003 32.19149465 -26 29 C-24.81937846 27.67900732 -23.65143861 26.34650586 -22.5 25 C-19.00240508 20.97694482 -15.41522811 17.03769044 -11.8203125 13.1015625 C-9.96323333 11.13276579 -9.96323333 11.13276579 -9 9 C-8.34 9 -7.68 9 -7 9 C-6.773125 8.443125 -6.54625 7.88625 -6.3125 7.3125 C-4.64103234 4.36753316 -2.44723648 2.31843456 0 0 Z " fill="#1C9269" transform="translate(240,245)"/>
<path d="M0 0 C2.5 1 2.5 1 4 2 C4 2.66 4 3.32 4 4 C4.66 4 5.32 4 6 4 C8.49336211 7.74004317 8.25481228 10.62561609 8.1953125 14.94921875 C8.1924826 15.72183548 8.18965271 16.49445221 8.18673706 17.29048157 C8.17554878 19.75631243 8.15044703 22.22177906 8.125 24.6875 C8.11496843 26.36002079 8.10584289 28.03254728 8.09765625 29.70507812 C8.07561392 33.80352559 8.04109363 37.90170106 8 42 C3.56435408 41.2862179 2.11685054 40.21130055 -1 37 C-2.96879323 35.93988057 -4.96435867 34.92529151 -7 34 C-7 33.34 -7 32.68 -7 32 C-7.763125 31.855625 -8.52625 31.71125 -9.3125 31.5625 C-12 31 -12 31 -15 30 C-16.29416573 9.20517442 -16.29416573 9.20517442 -12 3.1875 C-8.08672119 -0.70196575 -5.32446003 -0.96014853 0 0 Z " fill="#22B67E" transform="translate(341,270)"/>
<path d="M0 0 C0.33 0 0.66 0 1 0 C1 3.96 1 7.92 1 12 C1.99 12 2.98 12 4 12 C4 12.66 4 13.32 4 14 C4.804375 14.0928125 4.804375 14.0928125 5.625 14.1875 C9.03218622 15.35311634 11.25140806 17.70950672 14 20 C16.21735439 20.85279338 16.21735439 20.85279338 18 21 C18 21.66 18 22.32 18 23 C19.98 23.66 21.96 24.32 24 25 C24.1083667 27.7302389 24.18746694 30.45614543 24.25 33.1875 C24.28351563 33.95642578 24.31703125 34.72535156 24.3515625 35.51757812 C24.42069574 39.5445893 24.32766134 41.48865992 22.09765625 44.96875 C18.88005576 48.08448977 17.12352738 48.89596969 12.625 49.3125 C8.58275967 48.96403101 6.34880879 48.28327872 3 46 C-0.341747 40.87957325 -0.40111883 36.55903345 -0.29296875 30.6640625 C-0.28872391 29.78471039 -0.28447906 28.90535828 -0.28010559 27.99935913 C-0.26339461 25.20758658 -0.22575692 22.41655212 -0.1875 19.625 C-0.17244334 17.72527089 -0.15875666 15.82553039 -0.14648438 13.92578125 C-0.11351598 9.28357242 -0.06178653 4.64191109 0 0 Z " fill="#1C9268" transform="translate(152,182)"/>
<path d="M0 0 C14.85 0 29.7 0 45 0 C46.76203191 5.28609574 47.20069054 7.85334505 47.0625 13.1875 C46.90278004 22.48675094 47.43517574 31.7207443 48 41 C52.82020744 43.4894756 57.4596039 43.32953117 62.75390625 43.37890625 C64.160709 43.40439796 64.160709 43.40439796 65.59593201 43.43040466 C68.58472004 43.48340469 71.5734957 43.52376924 74.5625 43.5625 C77.55500443 43.60649681 80.54740429 43.65325283 83.53977966 43.70530701 C85.39945089 43.73714025 87.25921407 43.76406834 89.11903381 43.78553772 C90.38571144 43.80577248 90.38571144 43.80577248 91.67797852 43.82641602 C92.78786888 43.84068382 92.78786888 43.84068382 93.92018127 43.85523987 C96.04961491 44.00345331 97.94948293 44.42018166 100 45 C99.67 46.32 99.34 47.64 99 49 C97.515 48.01 97.515 48.01 96 47 C93.8758391 46.70060941 93.8758391 46.70060941 91.51611328 46.74462891 C90.61152374 46.73766998 89.7069342 46.73071106 88.77493286 46.72354126 C87.31239578 46.72503677 87.31239578 46.72503677 85.8203125 46.7265625 C83.756505 46.70627293 81.69270295 46.68542213 79.62890625 46.6640625 C76.37446491 46.6414588 73.12023889 46.62499144 69.86572266 46.61914062 C66.72518969 46.60961953 63.58562796 46.57584479 60.4453125 46.5390625 C59.47433624 46.54410797 58.50335999 46.54915344 57.50296021 46.55435181 C53.19498881 46.49162476 50.66869576 46.3994847 46.90966797 44.15380859 C43.26396901 40.04202693 43.86933455 35.5894508 43.90234375 30.39453125 C43.90335083 29.65054077 43.90435791 28.90655029 43.90539551 28.14001465 C43.91062257 25.36416073 43.92458385 22.58832879 43.9375 19.8125 C43.9684375 10.5003125 43.9684375 10.5003125 44 1 C29.48 1 14.96 1 0 1 C0 0.67 0 0.34 0 0 Z " fill="#308266" transform="translate(108,338)"/>
<path d="M0 0 C1.38120529 0.0001133 1.38120529 0.0001133 2.79031372 0.00022888 C4.28412064 0.00797081 4.28412064 0.00797081 5.80810547 0.01586914 C7.33538773 0.01799156 7.33538773 0.01799156 8.89352417 0.02015686 C12.15414332 0.02576639 15.41469448 0.03832051 18.67529297 0.05102539 C20.88232323 0.05603916 23.08935456 0.06060228 25.29638672 0.06469727 C30.71437877 0.07573891 36.13233101 0.09248634 41.55029297 0.11352539 C41.55029297 0.44352539 41.55029297 0.77352539 41.55029297 1.11352539 C40.29893555 1.12810791 39.04757813 1.14269043 37.75830078 1.15771484 C33.11380494 1.21570466 28.46979358 1.29293769 23.82568359 1.37597656 C21.81599798 1.40922265 19.80621906 1.43725558 17.79638672 1.45996094 C14.90665949 1.49351261 12.01778704 1.54582877 9.12841797 1.60180664 C8.23036438 1.60819656 7.33231079 1.61458649 6.40704346 1.62117004 C0.4147737 1.76032058 0.4147737 1.76032058 -4.44970703 5.11352539 C-5.10970703 5.11352539 -5.76970703 5.11352539 -6.44970703 5.11352539 C-6.44447021 6.32000732 -6.4392334 7.52648926 -6.43383789 8.76953125 C-6.41579092 13.22915917 -6.40427614 17.68878385 -6.39477539 22.1484375 C-6.38973447 24.08171124 -6.38290184 26.01498115 -6.37426758 27.94824219 C-6.36219138 30.72079411 -6.35647647 33.4932958 -6.35205078 36.26586914 C-6.3468895 37.13565903 -6.34172821 38.00544891 -6.33641052 38.90159607 C-6.33621518 40.97258353 -6.38762535 43.04346863 -6.44970703 45.11352539 C-7.99745312 46.66127148 -9.4756986 46.26859339 -11.63061523 46.30297852 C-12.51856277 46.31969604 -13.40651031 46.33641357 -14.32136536 46.3536377 C-15.28797592 46.36721313 -16.25458649 46.38078857 -17.25048828 46.39477539 C-18.23840866 46.41318481 -19.22632904 46.43159424 -20.2441864 46.45056152 C-23.41679738 46.50951378 -26.58946378 46.56221676 -29.76220703 46.61352539 C-33.92508134 46.68118356 -38.08778403 46.7549301 -42.25048828 46.83227539 C-43.21102615 46.84585083 -44.17156403 46.85942627 -45.16120911 46.87341309 C-46.05861313 46.89013062 -46.95601715 46.90684814 -47.88061523 46.92407227 C-48.66813675 46.93660034 -49.45565826 46.94912842 -50.26704407 46.96203613 C-52.43650977 47.11260943 -54.36200996 47.51908442 -56.44970703 48.11352539 C-54.83508743 46.16651897 -53.95119933 45.20259711 -51.41853333 44.75276184 C-50.64353989 44.75942368 -49.86854645 44.76608551 -49.07006836 44.77294922 C-48.18938187 44.77317581 -47.30869537 44.7734024 -46.40132141 44.77363586 C-45.45435898 44.78911972 -44.50739655 44.80460358 -43.53173828 44.82055664 C-42.55935715 44.82480148 -41.58697601 44.82904633 -40.58512878 44.8334198 C-37.47720737 44.85022224 -34.36993269 44.8878776 -31.26220703 44.92602539 C-29.1560966 44.94107019 -27.04997601 44.95475895 -24.94384766 44.96704102 C-19.77888465 45.00013095 -14.61440552 45.0519243 -9.44970703 45.11352539 C-9.46541748 43.95828369 -9.48112793 42.80304199 -9.49731445 41.61279297 C-9.55171072 37.31712852 -9.58609237 33.02149439 -9.61450195 28.72558594 C-9.62956649 26.86811194 -9.65002212 25.01067338 -9.67602539 23.15332031 C-9.71251162 20.47981 -9.72945673 17.80677095 -9.74267578 15.13305664 C-9.75815964 14.30578568 -9.77364349 13.47851471 -9.78959656 12.62617493 C-9.79095075 7.96207662 -9.49211553 4.89839067 -6.44970703 1.11352539 C-4.07579867 -0.07342879 -2.64725752 -0.00723294 0 0 Z " fill="#38A57D" transform="translate(161.44970703125,111.886474609375)"/>
<path d="M0 0 C6.62073877 0.04161962 13.24063353 0.11389655 19.86083984 0.20751953 C22.11304096 0.23574911 24.36534152 0.2569537 26.61767578 0.27099609 C29.85501083 0.2923976 33.09114774 0.33903495 36.328125 0.390625 C37.33554749 0.39185364 38.34296997 0.39308228 39.38092041 0.39434814 C43.31787267 0.47687553 46.16073037 0.53849475 49.64257812 2.453125 C51.73097003 6.37148909 51.49362754 9.98794735 51.390625 14.359375 C51.38496521 15.26375305 51.37930542 16.1681311 51.37347412 17.09991455 C51.35111248 19.98381853 51.30091686 22.86647261 51.25 25.75 C51.22993471 27.70701329 51.21168399 29.66404608 51.1953125 31.62109375 C51.15124839 36.41454289 51.08222252 41.20705965 51 46 C51.5593222 45.99777939 52.11864441 45.99555878 52.69491577 45.99327087 C58.50200768 45.97119418 64.30908772 45.95608339 70.11621094 45.94506836 C72.28516117 45.94003109 74.454108 45.93320109 76.62304688 45.92456055 C79.73568563 45.91246849 82.8482796 45.90676572 85.9609375 45.90234375 C86.934935 45.89718246 87.9089325 45.89202118 88.91244507 45.88670349 C89.81322784 45.88662796 90.71401062 45.88655243 91.64208984 45.88647461 C92.43706879 45.884254 93.23204773 45.88203339 94.05111694 45.87974548 C96 46 96 46 98 47 C98 47.66 98 48.32 98 49 C96.515 48.505 96.515 48.505 95 48 C93.51746317 47.89110382 92.03077739 47.83412549 90.54443359 47.81054688 C89.64695404 47.79382935 88.74947449 47.77711182 87.82479858 47.7598877 C86.37624985 47.73952454 86.37624985 47.73952454 84.8984375 47.71875 C83.90623199 47.70034058 82.91402649 47.68193115 81.89175415 47.66296387 C77.64018663 47.58417925 73.38846097 47.51635107 69.13671875 47.44775391 C66.03637491 47.39617615 62.9361737 47.33888306 59.8359375 47.28125 C58.86618988 47.26767456 57.89644226 47.25409912 56.89730835 47.2401123 C56.00613312 47.22339478 55.11495789 47.20667725 54.19677734 47.18945312 C53.4086264 47.17692505 52.62047546 47.16439697 51.80844116 47.15148926 C50 47 50 47 49 46 C48.86446472 43.14079645 48.78938886 40.30235249 48.75390625 37.44140625 C48.72097233 35.67642725 48.68776061 33.91145341 48.65429688 32.14648438 C48.60681626 29.35054031 48.56238951 26.55461788 48.52319336 23.75854492 C48.48358597 21.06927435 48.43201685 18.38043918 48.37890625 15.69140625 C48.3704921 14.85178848 48.36207794 14.01217072 48.35340881 13.14710999 C48.45180594 8.59758484 48.45180594 8.59758484 46 5 C46 4.01 46 3.02 46 2 C30.82 2 15.64 2 0 2 C0 1.34 0 0.68 0 0 Z " fill="#3EA07D" transform="translate(298,111)"/>
<path d="M0 0 C0.66 0 1.32 0 2 0 C2.12379331 5.60498022 2.21443018 11.20916122 2.2746582 16.81518555 C2.29976999 18.72125107 2.33386645 20.62722059 2.37719727 22.53295898 C2.43799744 25.27611998 2.46624245 28.01800586 2.48828125 30.76171875 C2.51408768 31.61086349 2.5398941 32.46000824 2.56648254 33.33488464 C2.56837306 37.34190105 2.28080207 39.52580998 0.20483398 43.03149414 C-4.6586599 46.01879902 -9.157645 45.75389435 -14.765625 45.734375 C-16.48758087 45.74866547 -16.48758087 45.74866547 -18.24432373 45.76324463 C-20.67180393 45.77540078 -23.0993789 45.77457785 -25.52685547 45.76171875 C-29.2240349 45.75008173 -32.91660424 45.8021921 -36.61328125 45.859375 C-38.9765593 45.86326204 -41.33984715 45.86338371 -43.703125 45.859375 C-44.80029846 45.87981873 -45.89747192 45.90026245 -47.02789307 45.92132568 C-54.16242227 45.81467997 -58.06356921 44.2977672 -63.46356201 39.59869385 C-65 38 -65 38 -65 37 C-62.03 36.505 -62.03 36.505 -59 36 C-58.87625 37.175625 -58.87625 37.175625 -58.75 38.375 C-58.28459669 41.08177321 -58.28459669 41.08177321 -56.26837158 42.14413452 C-53.69381272 43.11552566 -51.70507042 43.2771959 -48.95605469 43.31884766 C-47.95531921 43.33871735 -46.95458374 43.35858704 -45.92352295 43.37905884 C-44.31395721 43.39638565 -44.31395721 43.39638565 -42.671875 43.4140625 C-41.56773254 43.43342865 -40.46359009 43.4527948 -39.32598877 43.4727478 C-35.80073767 43.53250892 -32.27545385 43.57891564 -28.75 43.625 C-26.35936079 43.66318292 -23.96873529 43.70223483 -21.578125 43.7421875 C-15.71887174 43.83820767 -9.85953585 43.92326548 -4 44 C-4 43.34 -4 42.68 -4 42 C-2.02 41.505 -2.02 41.505 0 41 C-0.07726318 40.4652002 -0.15452637 39.93040039 -0.23413086 39.37939453 C-1.24692578 31.18764611 -0.89377798 23.09371416 -0.5625 14.875 C-0.50914459 13.42710609 -0.4564057 11.97918931 -0.40429688 10.53125 C-0.27662962 7.0205416 -0.14065099 3.51021504 0 0 Z " fill="#307760" transform="translate(347,339)"/>
<path d="M0 0 C2.45772574 3.68658861 2.30650094 6.50873526 2.31884766 10.77612305 C2.32889328 11.56660034 2.3389389 12.35707764 2.34928894 13.17150879 C2.38018531 15.7849047 2.39717389 18.39819786 2.4140625 21.01171875 C2.43276897 22.8234801 2.45234199 24.6352327 2.4727478 26.44697571 C2.52413011 31.21610354 2.56372315 35.98525963 2.60089111 40.7545166 C2.64089257 45.62092109 2.69200249 50.48720738 2.7421875 55.35351562 C2.83901897 64.90226079 2.92340063 74.45107261 3 84 C1.515 84.495 1.515 84.495 0 85 C0 56.95 0 28.9 0 0 Z " fill="#185140" transform="translate(102,164)"/>
<path d="M0 0 C4.58978038 -0.0992963 9.17892788 -0.17166748 13.76953125 -0.21972656 C15.32921244 -0.23977222 16.88881913 -0.26701657 18.44824219 -0.30175781 C20.69745314 -0.35059126 22.9456659 -0.37303815 25.1953125 -0.390625 C26.23161301 -0.42159271 26.23161301 -0.42159271 27.28884888 -0.45318604 C32.32788477 -0.45549191 35.13352906 0.82864909 39 4 C41.82792793 8.2418919 41.78122286 12.01873743 41 17 C39.31987353 20.12291165 37.21670326 22.39164837 34 24 C31.44893971 24.15644172 28.92081337 24.25821389 26.3671875 24.31640625 C25.61535187 24.33718735 24.86351624 24.35796844 24.08889771 24.37937927 C21.68435915 24.44482705 19.27971033 24.50373738 16.875 24.5625 C15.24608229 24.60568977 13.61717578 24.64930421 11.98828125 24.69335938 C7.99229894 24.80130385 3.99623436 24.90041198 0 25 C0 31.6 0 38.2 0 45 C6.93 45 13.86 45 21 45 C21 45.33 21 45.66 21 46 C13.74 46 6.48 46 -1 46 C-1 38.41 -1 30.82 -1 23 C16.325 22.505 16.325 22.505 34 22 C34.33 20.68 34.66 19.36 35 18 C35.99 17.67 36.98 17.34 38 17 C38.66624906 13.97219488 39.13525522 11.105668 39 8 C36.83653764 5.19334613 35.15193199 3.575966 32 2 C29.59439727 1.84391977 27.21297228 1.74195542 24.8046875 1.68359375 C24.09724396 1.66281265 23.38980042 1.64203156 22.66091919 1.62062073 C20.39904575 1.55518922 18.13705538 1.49627026 15.875 1.4375 C14.34243578 1.39430867 12.80988343 1.35069418 11.27734375 1.30664062 C7.51834927 1.19951445 3.75923708 1.0982291 0 1 C0 0.67 0 0.34 0 0 Z " fill="#327860" transform="translate(176,315)"/>
<path d="M0 0 C1.10844919 3.32534757 0.84454356 5.62182575 0 9 C0.99 9.33 1.98 9.66 3 10 C3 10.99 3 11.98 3 13 C4.65 13.33 6.3 13.66 8 14 C8 14.66 8 15.32 8 16 C17.6925021 15.8924019 27.38492847 15.77974896 37.07729626 15.66066074 C41.577955 15.6055205 46.07862033 15.55211489 50.5793457 15.50268555 C54.92360788 15.45491054 59.26779321 15.40256329 63.61196327 15.34705925 C65.26850785 15.32669512 66.92507346 15.30797242 68.5816555 15.29092598 C70.90371664 15.26675 73.22563416 15.23671409 75.54760742 15.20532227 C76.23093643 15.1995668 76.91426544 15.19381134 77.61830139 15.18788147 C81.19479386 15.13300183 84.51903415 14.8336406 88 14 C84.46820621 17.40182671 81.14579565 17.43929794 76.48095703 17.41992188 C75.35336975 17.43262619 75.35336975 17.43262619 74.20300293 17.44558716 C71.72110005 17.46896165 69.23981707 17.46997915 66.7578125 17.46875 C65.02912142 17.47585201 63.30043271 17.48355107 61.57174683 17.49182129 C57.94864348 17.5052676 54.32575803 17.50683453 50.70263672 17.50097656 C46.06645771 17.49508432 41.4313273 17.52565089 36.79535103 17.56609344 C33.22474566 17.59198368 29.6543922 17.59484661 26.0837059 17.59120178 C24.37491091 17.59289222 22.66610419 17.60252746 20.95740128 17.62034607 C18.56350491 17.64256041 16.17172309 17.63282337 13.77783203 17.61523438 C12.72557938 17.63512924 12.72557938 17.63512924 11.65206909 17.65542603 C6.0697677 17.56044481 3.78818713 15.80312934 0 12 C-1.1898306 9.6203388 -1.13349966 8.08514265 -1.125 5.4375 C-1.12886719 4.22900391 -1.12886719 4.22900391 -1.1328125 2.99609375 C-1 1 -1 1 0 0 Z " fill="#317C63" transform="translate(206,283)"/>
<path d="M0 0 C0.66 0 1.32 0 2 0 C2 7.26 2 14.52 2 22 C-2.26810922 24.13405461 -5.21827893 24.26112342 -9.828125 24.1953125 C-10.95163361 24.19106766 -10.95163361 24.19106766 -12.09783936 24.18673706 C-14.48205776 24.1755726 -16.86589579 24.15047531 -19.25 24.125 C-20.86978623 24.11496535 -22.48957836 24.10584035 -24.109375 24.09765625 C-28.07306246 24.07564555 -32.03646681 24.04114175 -36 24 C-34.96948242 22.51831055 -34.96948242 22.51831055 -33 21 C-30.41225229 20.73846931 -28.07100347 20.65041562 -25.48828125 20.70703125 C-24.76005661 20.71127609 -24.03183197 20.71552094 -23.28153992 20.71989441 C-20.95814873 20.73667267 -18.6356285 20.77432145 -16.3125 20.8125 C-14.73634066 20.82754803 -13.16016771 20.84123623 -11.58398438 20.85351562 C-7.72205167 20.88402062 -3.86199937 20.94273807 0 21 C0 14.07 0 7.14 0 0 Z " fill="#3EA67F" transform="translate(325,136)"/>
<path d="M0 0 C0.556875 0.309375 1.11375 0.61875 1.6875 0.9375 C4.17219278 2.0791156 6.27998821 2.71368297 9 3 C9.66 2.34 10.32 1.68 11 1 C11.020625 1.70125 11.04125 2.4025 11.0625 3.125 C12.45819675 7.4051367 15.26925626 9.59948046 19 12 C22.5437239 12.97278695 25.31014789 13 29 13 C29.33 12.34 29.66 11.68 30 11 C30.66 11 31.32 11 32 11 C32 10.34 32 9.68 32 9 C33.62626404 7.61767557 35.2925002 6.28062485 37 5 C37.66 5.33 38.32 5.66 39 6 C37.61392377 7.46761013 36.21568805 8.92374189 34.8125 10.375 C34.03519531 11.18710937 33.25789063 11.99921875 32.45703125 12.8359375 C28.78290798 16.07196976 26.48328579 17.03374939 21.56640625 16.921875 C17.30972687 15.82157233 15.20715453 14.16210337 11.9375 11.25 C10.95652344 10.38890625 9.97554687 9.5278125 8.96484375 8.640625 C7.98644531 7.76921875 7.00804687 6.8978125 6 6 C4.878937 5.07492255 3.75530886 4.15294328 2.62890625 3.234375 C1.76136719 2.49703125 0.89382812 1.7596875 0 1 C0 0.67 0 0.34 0 0 Z " fill="#317860" transform="translate(229,404)"/>
<path d="M0 0 C0.99 0.33 1.98 0.66 3 1 C3 1.66 3 2.32 3 3 C5.97 3.495 5.97 3.495 9 4 C9.33 3.34 9.66 2.68 10 2 C10 5.3 10 8.6 10 12 C10.66 12 11.32 12 12 12 C12.33 13.32 12.66 14.64 13 16 C13.99 16 14.98 16 16 16 C16.69937202 17.4317616 17.38412718 18.87067032 18.0625 20.3125 C18.63677734 21.51326172 18.63677734 21.51326172 19.22265625 22.73828125 C20 25 20 25 19 28 C16.76739304 24.83574636 14.53955732 21.66816146 12.3125 18.5 C11.68666016 17.613125 11.06082031 16.72625 10.41601562 15.8125 C6.77809463 10.63179576 3.30060281 5.40213385 0 0 Z " fill="#32A97C" transform="translate(340,240)"/>
<path d="M0 0 C0.33 0 0.66 0 1 0 C1.01981934 1.09465576 1.03963867 2.18931152 1.06005859 3.31713867 C1.13629437 7.38947029 1.2249838 11.46145296 1.31738281 15.53344727 C1.35559841 17.29379371 1.39046413 19.05421626 1.421875 20.81469727 C1.46768714 23.34939725 1.52565417 25.88357664 1.5859375 28.41796875 C1.59748871 29.20149216 1.60903992 29.98501556 1.62094116 30.7922821 C1.73232389 34.9426576 2.14538725 38.26149114 4 42 C4.99 42 5.98 42 7 42 C7.33 43.65 7.66 45.3 8 47 C8.66 47 9.32 47 10 47 C10.103125 47.61875 10.20625 48.2375 10.3125 48.875 C10.87525373 51.36526484 10.87525373 51.36526484 14 53 C14 53.66 14 54.32 14 55 C14.66 55.33 15.32 55.66 16 56 C15.34 56.66 14.68 57.32 14 58 C12.60311926 56.14662229 11.2075498 54.29225626 9.8125 52.4375 C8.64654297 50.88869141 8.64654297 50.88869141 7.45703125 49.30859375 C7.05713989 48.76271606 6.65724854 48.21683838 6.24523926 47.65441895 C5.42592505 46.56588199 4.57197366 45.5024417 3.68347168 44.46960449 C-0.25607207 39.64372781 -0.68114699 35.89066461 -0.48828125 29.78515625 C-0.48120651 28.92941513 -0.47413177 28.07367401 -0.46684265 27.19200134 C-0.43904043 24.48124645 -0.37633274 21.77262155 -0.3125 19.0625 C-0.28739863 17.2155248 -0.26458869 15.36851695 -0.24414062 13.52148438 C-0.18926079 9.01351272 -0.10309049 4.50711641 0 0 Z " fill="#439877" transform="translate(325,181)"/>
<path d="M0 0 C4.31248609 -0.02886537 8.62494762 -0.04675255 12.9375 -0.0625 C14.16919922 -0.07087891 15.40089844 -0.07925781 16.66992188 -0.08789062 C17.83974609 -0.09111328 19.00957031 -0.09433594 20.21484375 -0.09765625 C21.84087524 -0.10551147 21.84087524 -0.10551147 23.49975586 -0.11352539 C26 0 26 0 27 1 C27.23527773 3.34987262 27.41386417 5.70556039 27.5625 8.0625 C27.68818359 9.99802734 27.68818359 9.99802734 27.81640625 11.97265625 C27.87699219 12.97167969 27.93757813 13.97070312 28 15 C27.01 15 26.02 15 25 15 C24.67 11.04 24.34 7.08 24 3 C16.08 2.67 8.16 2.34 0 2 C0 1.34 0 0.68 0 0 Z " fill="#35AA7E" transform="translate(128,179)"/>
<path d="M0 0 C3.69923924 -0.20551329 5.74718637 0.31751019 9 2 C9.66 1.67 10.32 1.34 11 1 C13.00800456 1.28112064 15.01014051 1.61067967 17 2 C17 2.66 17 3.32 17 4 C17.84763916 3.9388501 17.84763916 3.9388501 18.71240234 3.87646484 C21.26597672 3.69838179 23.8203257 3.5365024 26.375 3.375 C27.70917969 3.27832031 27.70917969 3.27832031 29.0703125 3.1796875 C29.92109375 3.128125 30.771875 3.0765625 31.6484375 3.0234375 C32.82672119 2.94488525 32.82672119 2.94488525 34.02880859 2.86474609 C36 3 36 3 38 5 C33.23115433 5.07425143 28.4626464 5.12864936 23.69335938 5.16479492 C22.07155494 5.17986565 20.44979116 5.20032593 18.828125 5.22631836 C16.49468954 5.26277829 14.16179369 5.27974314 11.828125 5.29296875 C11.10506165 5.30845261 10.38199829 5.32393646 9.63702393 5.33988953 C6.45791733 5.34094826 4.31096763 5.1740577 1.51074219 3.60668945 C0 2 0 2 0 0 Z " fill="#2EAA80" transform="translate(287,176)"/>
<path d="M0 0 C0.66 0.33 1.32 0.66 2 1 C2 12.55 2 24.1 2 36 C0.35 35.67 -1.3 35.34 -3 35 C-1.515 34.505 -1.515 34.505 0 34 C0 22.78 0 11.56 0 0 Z " fill="#3A9F7B" transform="translate(347,276)"/>
<path d="M0 0 C4.91074958 2.57269645 8.8502181 5.4003185 12 10 C10.66666667 9.33333333 9.33333333 8.66666667 8 8 C6.9790625 7.5359375 6.9790625 7.5359375 5.9375 7.0625 C3.90393799 5.94732083 2.55305332 4.70835865 1 3 C0.01 3.33 -0.98 3.66 -2 4 C-2 3.01 -2 2.02 -2 1 C-6.98639426 2.17326924 -8.88367173 5.12854201 -11.66796875 9.125 C-13 11 -13 11 -15 13 C-16.32 12.34 -17.64 11.68 -19 11 C-17.21079529 9.3514184 -15.4187995 7.70606879 -13.625 6.0625 C-12.86316406 5.35963867 -12.86316406 5.35963867 -12.0859375 4.64257812 C-7.89024922 0.8057316 -5.78916284 -0.73680254 0 0 Z " fill="#3C9F7C" transform="translate(253,73)"/>
<path d="M0 0 C0.99 0 1.98 0 3 0 C3 0.66 3 1.32 3 2 C25.275 1.505 25.275 1.505 48 1 C48.495 1.99 48.495 1.99 49 3 C48.01 3 47.02 3 46 3 C45.67 4.65 45.34 6.3 45 8 C43.68 7.67 42.36 7.34 41 7 C41.66 6.01 42.32 5.02 43 4 C29.14 3.67 15.28 3.34 1 3 C0.67 2.01 0.34 1.02 0 0 Z " fill="#3FA482" transform="translate(212,223)"/>
<path d="M0 0 C0.33 0 0.66 0 1 0 C1.0093457 0.88260498 1.01869141 1.76520996 1.02832031 2.67456055 C1.07246114 5.96456672 1.13412676 9.25329074 1.20751953 12.54272461 C1.23566014 13.96350192 1.25690908 15.38443378 1.27099609 16.80541992 C1.29252394 18.85415359 1.33921514 20.901043 1.390625 22.94921875 C1.41157227 24.17987061 1.43251953 25.41052246 1.45410156 26.6784668 C2.08534809 30.51930267 3.34697747 32.21525074 6 35 C5.67 35.66 5.34 36.32 5 37 C4.731875 36.360625 4.46375 35.72125 4.1875 35.0625 C3.11332248 32.66868314 3.11332248 32.66868314 0 32 C-1.42917743 29.14164514 -1.12980809 26.68742281 -1.1328125 23.49609375 C-1.13410156 22.19865234 -1.13539063 20.90121094 -1.13671875 19.56445312 C-1.13462402 18.88777588 -1.1325293 18.21109863 -1.13037109 17.51391602 C-1.12501202 15.44214585 -1.13032518 13.37059161 -1.13671875 11.29882812 C-1.13542969 10.00267578 -1.13414062 8.70652344 -1.1328125 7.37109375 C-1.13168457 6.17411865 -1.13055664 4.97714355 -1.12939453 3.74389648 C-1 1 -1 1 0 0 Z " fill="#3BA17B" transform="translate(348,181)"/>
<path d="M0 0 C0.66 0.33 1.32 0.66 2 1 C2.73877817 5.82257971 2.80763804 9.54585851 0.39453125 13.890625 C-1.62691143 16.54542777 -3.4172234 18.88149215 -6 21 C-8.76953125 21.2734375 -8.76953125 21.2734375 -11 21 C-11 21.66 -11 22.32 -11 23 C-11.66 22.67 -12.32 22.34 -13 22 C-13 21.01 -13 20.02 -13 19 C-11.68 18.34 -10.36 17.68 -9 17 C-9 17.66 -9 18.32 -9 19 C-8.01 18.01 -7.02 17.02 -6 16 C-6.33 15.01 -6.66 14.02 -7 13 C-6.34 13 -5.68 13 -5 13 C-5 12.34 -5 11.68 -5 11 C-3.68 11 -2.36 11 -1 11 C-0.67 7.37 -0.34 3.74 0 0 Z " fill="#2BBC8B" transform="translate(295,207)"/>
<path d="M0 0 C0.33 0 0.66 0 1 0 C1.01981934 0.69859131 1.03963867 1.39718262 1.06005859 2.11694336 C0.97888157 24.33535328 0.97888157 24.33535328 5 46 C4.34 46 3.68 46 3 46 C-0.22453966 40.7410622 -0.40241482 36.62967406 -0.29296875 30.6640625 C-0.28872391 29.78471039 -0.28447906 28.90535828 -0.28010559 27.99935913 C-0.26339461 25.20758658 -0.22575692 22.41655212 -0.1875 19.625 C-0.17244334 17.72527089 -0.15875666 15.82553039 -0.14648438 13.92578125 C-0.11351598 9.28357242 -0.06178653 4.64191109 0 0 Z " fill="#2F7E61" transform="translate(152,182)"/>
<path d="M0 0 C0.66 0 1.32 0 2 0 C2.1083667 2.7302389 2.18746694 5.45614543 2.25 8.1875 C2.30027344 9.34088867 2.30027344 9.34088867 2.3515625 10.51757812 C2.42069574 14.5445893 2.32766134 16.48865992 0.09765625 19.96875 C-3.17830819 23.14100607 -4.90083645 23.92148832 -9.5 24.25 C-12.6845203 24.02253426 -14.36015235 23.6895025 -17 22 C-14.05630855 20.52815427 -11.26616586 21 -8 21 C-6.32442621 20.71479595 -4.65182755 20.40044304 -3 20 C-3 18.68 -3 17.36 -3 16 C-2.34 16 -1.68 16 -1 16 C0.14077657 12.57767028 0.09815117 9.91326783 0.0625 6.3125 C0.05347656 5.13300781 0.04445312 3.95351562 0.03515625 2.73828125 C0.02355469 1.83464844 0.01195312 0.93101562 0 0 Z " fill="#357861" transform="translate(174,207)"/>
<path d="M0 0 C0.33 1.32 0.66 2.64 1 4 C-0.98 4 -2.96 4 -5 4 C-8.23326911 8.73966204 -8.23326911 8.73966204 -8.6328125 14.2421875 C-7.8631502 16.24330948 -7.01463705 18.11250925 -6 20 C-5.67 20.66 -5.34 21.32 -5 22 C-7.28783297 21.08486681 -8.73449728 20.34515354 -10.25 18.375 C-11.37006493 14.82812773 -11.79507473 11.62500175 -11 8 C-8.24930132 3.59550702 -5.42948093 0 0 0 Z " fill="#31A97D" transform="translate(203,153)"/>
<path d="M0 0 C2.32758311 0.93103324 3.74357132 1.65382128 5.25 3.6875 C6.32365701 6.99794246 6.3585013 9.53448741 6 13 C3.68883869 17.36552692 0.98614701 20.12111605 -3 23 C-2.625 20.5625 -2.625 20.5625 -2 18 C-1.34 17.67 -0.68 17.34 0 17 C0 16.34 0 15.68 0 15 C0.99 15 1.98 15 3 15 C2.67 14.01 2.34 13.02 2 12 C1.97097548 9.71120901 2.06487622 7.44297079 2.16015625 5.15625 C2.15538318 2.70056732 2.15538318 2.70056732 0 0 Z " fill="#337962" transform="translate(271,386)"/>
<path d="M0 0 C0.99 0.33 1.98 0.66 3 1 C7.17023918 1.1544533 10.94146318 0.98388771 15 0 C11.24367049 3.25414642 6.92159479 4.89627092 2.375 6.75 C1.59898437 7.07871094 0.82296875 7.40742188 0.0234375 7.74609375 C-0.7190625 8.05160156 -1.4615625 8.35710937 -2.2265625 8.671875 C-2.90283691 8.9512793 -3.57911133 9.23068359 -4.27587891 9.51855469 C-6 10 -6 10 -8 9 C-6.02 8.34 -4.04 7.68 -2 7 C-1.855625 6.21625 -1.71125 5.4325 -1.5625 4.625 C-1 2 -1 2 0 0 Z " fill="#2D7D62" transform="translate(236,362)"/>
<path d="M0 0 C16.5 0 33 0 50 0 C49.67 1.32 49.34 2.64 49 4 C48.01 3.34 47.02 2.68 46 2 C43.84120666 1.67370844 43.84120666 1.67370844 41.43676758 1.68115234 C40.51603958 1.66128265 39.59531158 1.64141296 38.64668274 1.62094116 C37.65597275 1.60938995 36.66526276 1.59783875 35.64453125 1.5859375 C34.11937141 1.55688828 34.11937141 1.55688828 32.56340027 1.5272522 C29.31318573 1.46743259 26.06293583 1.42106124 22.8125 1.375 C20.61001052 1.33682244 18.40753601 1.29777084 16.20507812 1.2578125 C10.80351817 1.16172917 5.40186823 1.07668862 0 1 C0 0.67 0 0.34 0 0 Z " fill="#30725D" transform="translate(158,383)"/>
<path d="M0 0 C0.33 0.66 0.66 1.32 1 2 C0.0625 4.625 0.0625 4.625 -1 7 C-0.34 7.33 0.32 7.66 1 8 C0.01 8 -0.98 8 -2 8 C-1.34 8.33 -0.68 8.66 0 9 C0 9.66 0 10.32 0 11 C-1.32 11.33 -2.64 11.66 -4 12 C-4 12.66 -4 13.32 -4 14 C-4.66 14 -5.32 14 -6 14 C-6.33 14.99 -6.66 15.98 -7 17 C-6.96591928 7.42331839 -6.96591928 7.42331839 -4.59765625 3.93359375 C-2.9375 2.3125 -2.9375 2.3125 0 0 Z " fill="#218E68" transform="translate(213,275)"/>
<path d="M0 0 C0.66 0 1.32 0 2 0 C2.92092281 4.65537356 3.12205997 9.14685433 3.0625 13.875 C3.05798828 14.56335938 3.05347656 15.25171875 3.04882812 15.9609375 C3.03716336 17.64066335 3.01923271 19.32034375 3 21 C2.01 21.33 1.02 21.66 0 22 C0 14.74 0 7.48 0 0 Z " fill="#1A755F" transform="translate(102,250)"/>
<path d="M0 0 C0.62092529 0.15847412 1.24185059 0.31694824 1.8815918 0.48022461 C6.21798716 1.20301375 10.50482543 1.23620768 14.89453125 1.31640625 C15.84188644 1.33718735 16.78924164 1.35796844 17.76530457 1.37937927 C20.7809651 1.44457778 23.7967101 1.50362132 26.8125 1.5625 C28.86133674 1.60571348 30.91016504 1.64932866 32.95898438 1.69335938 C37.97257047 1.80022866 42.98624123 1.90157931 48 2 C48 2.33 48 2.66 48 3 C41.48558999 3.07589036 34.9712934 3.12853202 28.45654297 3.16479492 C26.23905172 3.17990753 24.02159047 3.20039826 21.80419922 3.22631836 C18.62199511 3.26259293 15.44018518 3.27970139 12.2578125 3.29296875 C10.76400558 3.31619453 10.76400558 3.31619453 9.24002075 3.33988953 C7.85881546 3.34022942 7.85881546 3.34022942 6.44970703 3.34057617 C5.6369632 3.34723801 4.82421936 3.35389984 3.98684692 3.36076355 C3.33118744 3.24171158 2.67552795 3.12265961 2 3 C1.34 2.01 0.68 1.02 0 0 Z " fill="#2C8768" transform="translate(104,335)"/>
<path d="M0 0 C0 0.99 0 1.98 0 3 C-0.928125 3.309375 -0.928125 3.309375 -1.875 3.625 C-4.84653645 5.54775888 -5.13024659 7.66594527 -6 11 C-6.721875 10.319375 -7.44375 9.63875 -8.1875 8.9375 C-10.8205652 6.68262931 -10.8205652 6.68262931 -13.8125 7.25 C-14.534375 7.4975 -15.25625 7.745 -16 8 C-12.80815657 5.35820725 -9.58418661 3.85450983 -5.75 2.3125 C-4.67234375 1.87550781 -3.5946875 1.43851562 -2.484375 0.98828125 C-1.25460938 0.49908203 -1.25460938 0.49908203 0 0 Z " fill="#248463" transform="translate(256,333)"/>
<path d="M0 0 C0.33 0.66 0.66 1.32 1 2 C-1.0485309 6.8140476 -2.88889713 9.80912146 -7.4375 12.375 C-10.32605634 14.20676743 -11.90599636 16.32834018 -14 19 C-14.66 19 -15.32 19 -16 19 C-14.32598022 15.04322598 -11.86850715 12.15535787 -9 9 C-8.34 9 -7.68 9 -7 9 C-6.773125 8.443125 -6.54625 7.88625 -6.3125 7.3125 C-4.64103234 4.36753316 -2.44723648 2.31843456 0 0 Z " fill="#297E64" transform="translate(240,245)"/>
<path d="M0 0 C-1.45537568 0.83848804 -2.91440373 1.67063934 -4.375 2.5 C-5.59316406 3.19609375 -5.59316406 3.19609375 -6.8359375 3.90625 C-9 5 -9 5 -11 5 C-11 6.65 -11 8.3 -11 10 C-13.97 9.67 -16.94 9.34 -20 9 C-20 8.34 -20 7.68 -20 7 C-17.04738074 5.63311253 -14.08709966 4.28370462 -11.125 2.9375 C-10.28324219 2.54755859 -9.44148438 2.15761719 -8.57421875 1.75585938 C-7.76855469 1.39169922 -6.96289062 1.02753906 -6.1328125 0.65234375 C-5.38918457 0.31195068 -4.64555664 -0.02844238 -3.87939453 -0.37915039 C-2 -1 -2 -1 0 0 Z " fill="#298A6B" transform="translate(278,325)"/>
<path d="M0 0 C0.66 0.33 1.32 0.66 2 1 C0.88200014 2.33920838 -0.24461897 3.67122556 -1.375 5 C-2.31472656 6.11375 -2.31472656 6.11375 -3.2734375 7.25 C-4.12808594 8.11625 -4.12808594 8.11625 -5 9 C-5.66 9 -6.32 9 -7 9 C-7.226875 9.5775 -7.45375 10.155 -7.6875 10.75 C-9.33038023 13.5663661 -11.39533227 15.08077114 -14 17 C-14 16.01 -14 15.02 -14 14 C-14.66 14 -15.32 14 -16 14 C-16 13.34 -16 12.68 -16 12 C-13.09399739 10.74335022 -11.20395416 10 -8 10 C-6.79371992 7.66785852 -5.8345262 5.50357861 -5 3 C-2.5625 1.25 -2.5625 1.25 0 0 Z " fill="#379E79" transform="translate(276,239)"/>
<path d="M0 0 C0.33 0.66 0.66 1.32 1 2 C0.01 2.66 -0.98 3.32 -2 4 C-2.144375 4.825 -2.28875 5.65 -2.4375 6.5 C-3 9 -3 9 -4.8125 10.25 C-7 11 -7 11 -9.0625 11.4375 C-11.40586999 12.11783322 -12.41902573 13.18187959 -14 15 C-14.66 14.67 -15.32 14.34 -16 14 C-11.05590198 8.7697484 -5.76575494 4.30143623 0 0 Z " fill="#36A67C" transform="translate(233,85)"/>
<path d="M0 0 C-2.90610347 3.04448935 -4.98371363 4.88494871 -9.3125 5.375 C-13.46879752 6.07945721 -15.54878974 7.67418439 -19 10 C-21.875 10.25 -21.875 10.25 -24 10 C-22.03738614 6.07477227 -16.44990717 4.95962013 -12.5625 3.3125 C-11.09200195 2.66958008 -11.09200195 2.66958008 -9.59179688 2.01367188 C-8.65529297 1.61341797 -7.71878906 1.21316406 -6.75390625 0.80078125 C-5.45948608 0.24644409 -5.45948608 0.24644409 -4.13891602 -0.3190918 C-2 -1 -2 -1 0 0 Z " fill="#39A37C" transform="translate(236,139)"/>
<path d="M0 0 C0.66 0.66 1.32 1.32 2 2 C1.67 2.66 1.34 3.32 1 4 C11.56 4 22.12 4 33 4 C33 4.33 33 4.66 33 5 C32.29915283 5.02505615 31.59830566 5.0501123 30.8762207 5.07592773 C27.68814512 5.19226545 24.50033758 5.31482044 21.3125 5.4375 C19.65831055 5.49647461 19.65831055 5.49647461 17.97070312 5.55664062 C16.90400391 5.59853516 15.83730469 5.64042969 14.73828125 5.68359375 C13.75899658 5.72025146 12.77971191 5.75690918 11.77075195 5.79467773 C8.9916455 5.93767036 8.9916455 5.93767036 6.28588867 6.57836914 C3.49177111 7.09374253 2.35983023 6.48581904 0 5 C0 3.35 0 1.7 0 0 Z " fill="#298867" transform="translate(175,312)"/>
<path d="M0 0 C0.66 0 1.32 0 2 0 C2 0.66 2 1.32 2 2 C2.99 2.33 3.98 2.66 5 3 C5.11624638 11.73139464 4.89115181 20.31126982 4 29 C3.67 29 3.34 29 3 29 C2.98018066 28.26362305 2.96036133 27.52724609 2.93994141 26.76855469 C2.84462172 23.42867944 2.73497004 20.08942361 2.625 16.75 C2.57859375 15.01169922 2.57859375 15.01169922 2.53125 13.23828125 C2.47324219 11.56572266 2.47324219 11.56572266 2.4140625 9.859375 C2.3826416 8.83295898 2.3512207 7.80654297 2.31884766 6.74902344 C2.00363375 4.03132927 1.38967649 2.33075565 0 0 Z " fill="#40A07B" transform="translate(372,286)"/>
<path d="M0 0 C0.66 0 1.32 0 2 0 C2 0.99 2 1.98 2 3 C10.58 3 19.16 3 28 3 C28 3.33 28 3.66 28 4 C27.19780029 4.01981934 26.39560059 4.03963867 25.5690918 4.06005859 C21.94155823 4.15519495 18.31460955 4.2649208 14.6875 4.375 C12.79354492 4.42140625 12.79354492 4.42140625 10.86132812 4.46875 C9.04858398 4.52675781 9.04858398 4.52675781 7.19921875 4.5859375 C6.08377686 4.6173584 4.96833496 4.6487793 3.8190918 4.68115234 C0.79631214 4.805249 0.79631214 4.805249 -2 7 C-2 3 -2 3 0 0 Z " fill="#318A6B" transform="translate(347,312)"/>
<path d="M0 0 C2.875 0.25 2.875 0.25 6 1 C7.375 3.0625 7.375 3.0625 8 5 C6.35 4.34 4.7 3.68 3 3 C-0.63 6.3 -4.26 9.6 -8 13 C-8.66 12.67 -9.32 12.34 -10 12 C-5.25 6.25 -5.25 6.25 -3 4 C-1.98758315 2.67607028 -0.98560611 1.34400833 0 0 Z " fill="#37A978" transform="translate(247,100)"/>
<path d="M0 0 C0.99 0.66 1.98 1.32 3 2 C-0.66305234 2.74926071 -3.42355152 3.2380014 -7 2 C-7 2.66 -7 3.32 -7 4 C-8.11375 4.12375 -9.2275 4.2475 -10.375 4.375 C-14.03103677 4.6465813 -14.03103677 4.6465813 -16 7 C-16.99 6.34 -17.98 5.68 -19 5 C-6.13700281 -0.9140217 -6.13700281 -0.9140217 0 0 Z " fill="#2D765C" transform="translate(301,316)"/>
<path d="M0 0 C2.97343996 1.02532413 3.99860466 1.99797917 5.8125 4.625 C7.3819123 9.08543496 7.05590544 11.39926915 6 16 C4.4375 18 4.4375 18 3 19 C3 16.69 3 14.38 3 12 C3.66 12 4.32 12 5 12 C4.35522931 10.37457807 3.70914857 8.74967576 3.0625 7.125 C2.70285156 6.22007812 2.34320313 5.31515625 1.97265625 4.3828125 C1.05098738 2.03862333 1.05098738 2.03862333 0 0 Z " fill="#317961" transform="translate(291,278)"/>
<path d="M0 0 C0.33 0 0.66 0 1 0 C2.39506385 6.17077755 2.4412299 12.38626914 2.6875 18.6875 C2.74744141 19.93595703 2.80738281 21.18441406 2.86914062 22.47070312 C2.9397168 24.25444336 2.9397168 24.25444336 3.01171875 26.07421875 C3.05772217 27.16307373 3.10372559 28.25192871 3.15112305 29.3737793 C3 32 3 32 1 34 C0.97494385 33.28344238 0.9498877 32.56688477 0.92407227 31.82861328 C0.80830249 28.59388486 0.68549031 25.35946159 0.5625 22.125 C0.52318359 20.99707031 0.48386719 19.86914062 0.44335938 18.70703125 C0.40146484 17.63066406 0.35957031 16.55429687 0.31640625 15.4453125 C0.27974854 14.45031738 0.24309082 13.45532227 0.20532227 12.43017578 C0.15040468 9.99220499 0.15040468 9.99220499 -1 8 C-1.125 4.4375 -1.125 4.4375 -1 1 C-0.67 0.67 -0.34 0.34 0 0 Z " fill="#2C8A6A" transform="translate(124,261)"/>
<path d="M0 0 C-0.6640625 1.8984375 -0.6640625 1.8984375 -2 4 C-4.4609375 4.9765625 -4.4609375 4.9765625 -7.375 5.625 C-11.39951291 6.53166521 -11.39951291 6.53166521 -15.1640625 8.1484375 C-17 9 -17 9 -20 8 C-17.04435292 6.66065284 -14.0850622 5.32955753 -11.125 4 C-10.28324219 3.6184375 -9.44148437 3.236875 -8.57421875 2.84375 C-7.76855469 2.4828125 -6.96289062 2.121875 -6.1328125 1.75 C-5.38918457 1.41484375 -4.64555664 1.0796875 -3.87939453 0.734375 C-2 0 -2 0 0 0 Z " fill="#338165" transform="translate(240,341)"/>
<path d="M0 0 C0.99 0.33 1.98 0.66 3 1 C3.33 5.29 3.66 9.58 4 14 C3.01 14 2.02 14 1 14 C0.06380187 10.84493858 -0.1057123 8.03413498 -0.0625 4.75 C-0.05347656 3.85796875 -0.04445313 2.9659375 -0.03515625 2.046875 C-0.02355469 1.37140625 -0.01195313 0.6959375 0 0 Z " fill="#22745C" transform="translate(102,320)"/>
<path d="M0 0 C0.99 0 1.98 0 3 0 C3.0825 0.61875 3.165 1.2375 3.25 1.875 C3.4975 2.57625 3.745 3.2775 4 4 C4.639375 4.268125 5.27875 4.53625 5.9375 4.8125 C8 6 8 6 9.046875 8.3828125 C9.27890625 9.28773438 9.5109375 10.19265625 9.75 11.125 C9.99234375 12.03507812 10.2346875 12.94515625 10.484375 13.8828125 C10.73960937 14.93082031 10.73960937 14.93082031 11 16 C8.0253772 13.17015973 5.60002342 10.23934977 3.25 6.875 C2.63640625 6.00617188 2.0228125 5.13734375 1.390625 4.2421875 C0 2 0 2 0 0 Z " fill="#38A57F" transform="translate(360,268)"/>
<path d="M0 0 C3.36938898 1.12312966 4.53174093 2.53174093 7 5 C7 5.66 7 6.32 7 7 C7.45375 7.4125 7.9075 7.825 8.375 8.25 C10.53986646 10.58139465 11.12705877 12.97828036 12 16 C7.95643419 14.65214473 6.58749064 11.9550299 4.3125 8.5625 C3.89677734 7.96373047 3.48105469 7.36496094 3.05273438 6.74804688 C0 2.27170567 0 2.27170567 0 0 Z " fill="#308064" transform="translate(134,265)"/>
<path d="M0 0 C0.66 0 1.32 0 2 0 C2.33 1.65 2.66 3.3 3 5 C3.66 5 4.32 5 5 5 C5.103125 5.61875 5.20625 6.2375 5.3125 6.875 C5.87525373 9.36526484 5.87525373 9.36526484 9 11 C9 11.66 9 12.32 9 13 C9.66 13.33 10.32 13.66 11 14 C10.34 14.66 9.68 15.32 9 16 C7.48789968 14.09187341 5.99060375 12.17480364 4.5 10.25 C4.07074219 9.71117187 3.64148438 9.17234375 3.19921875 8.6171875 C0.70041073 5.36477072 0 4.24603943 0 0 Z " fill="#3BA479" transform="translate(330,223)"/>
<path d="M0 0 C3.9252025 3.70090521 6.94580156 7.54959656 10 12 C9.67 12.66 9.34 13.32 9 14 C4.46783481 10.85266306 2.38959582 7.86769519 0 3 C0 2.01 0 1.02 0 0 Z " fill="#2C8164" transform="translate(152,250)"/>
<path d="M0 0 C0.99 0 1.98 0 3 0 C3 0.66 3 1.32 3 2 C3.99 2.33 4.98 2.66 6 3 C3.71220962 4.03040167 1.42048864 5.04952018 -0.875 6.0625 C-1.85146484 6.50432617 -1.85146484 6.50432617 -2.84765625 6.95507812 C-4.54010541 7.69661513 -6.26868575 8.35439001 -8 9 C-8.66 8.67 -9.32 8.34 -10 8 C-4.25 5 -4.25 5 -2 5 C-2.33 4.01 -2.66 3.02 -3 2 C-2.01 2 -1.02 2 0 2 C0 1.34 0 0.68 0 0 Z " fill="#35AB80" transform="translate(244,156)"/>
<path d="M0 0 C0.66666667 2 1.33333333 4 2 6 C2.66 6.33 3.32 6.66 4 7 C3.67 7.66 3.34 8.32 3 9 C2.4225 8.690625 1.845 8.38125 1.25 8.0625 C-1.51795905 6.75540822 -3.93361147 6 -7 6 C-7 5.34 -7 4.68 -7 4 C-4.69 2.68 -2.38 1.36 0 0 Z " fill="#287F62" transform="translate(263,354)"/>
<path d="M0 0 C3.35281942 3.08812315 5.82230601 5.52476282 7 10 C6.67 10.99 6.34 11.98 6 13 C5.01 12.67 4.02 12.34 3 12 C1.63866302 8.06724871 0.74383122 4.09107168 0 0 Z " fill="#257C5F" transform="translate(170,275)"/>
<path d="M0 0 C2.00720923 0.28674418 4.0085944 0.61866701 6 1 C2.79147256 3.83831273 0.25601248 4.64533229 -4 5 C-6.375 4.5625 -6.375 4.5625 -8 4 C-8 3.34 -8 2.68 -8 2 C-6.865625 1.855625 -5.73125 1.71125 -4.5625 1.5625 C-1.19222799 1.38828522 -1.19222799 1.38828522 0 0 Z " fill="#39A87F" transform="translate(207,173)"/>
<path d="M0 0 C0.66 0.33 1.32 0.66 2 1 C2.76681614 9.62242152 2.76681614 9.62242152 0.88671875 13 C-0.5 14.625 -0.5 14.625 -3 17 C-3.33 15.68 -3.66 14.36 -4 13 C-3.01 12.34 -2.02 11.68 -1 11 C-0.41651248 8.3443272 -0.41651248 8.3443272 -0.3125 5.375 C-0.24675781 4.37210938 -0.18101562 3.36921875 -0.11328125 2.3359375 C-0.05720703 1.17964844 -0.05720703 1.17964844 0 0 Z " fill="#3DA07D" transform="translate(295,207)"/>
<path d="M0 0 C2.93200474 2.85276137 5.64315404 5.65079784 8 9 C7.67 9.66 7.34 10.32 7 11 C6.38125 10.67 5.7625 10.34 5.125 10 C3.08981656 8.85806765 3.08981656 8.85806765 1 9 C1 8.34 1 7.68 1 7 C0.34 7 -0.32 7 -1 7 C-0.67 4.69 -0.34 2.38 0 0 Z " fill="#298667" transform="translate(132,222)"/>
<path d="M0 0 C3.08089673 2.77280706 4.68775452 5.06326356 6 9 C3.36 8.34 0.72 7.68 -2 7 C-1.125 2.25 -1.125 2.25 0 0 Z " fill="#2FA97E" transform="translate(363,231)"/>
<path d="M0 0 C0 0.66 0 1.32 0 2 C-0.99 2 -1.98 2 -3 2 C-3.66 3.32 -4.32 4.64 -5 6 C-7.64 6 -10.28 6 -13 6 C-11.66876597 3.33753193 -10.3235622 3.05398348 -7.625 1.875 C-6.83351563 1.52179688 -6.04203125 1.16859375 -5.2265625 0.8046875 C-3 0 -3 0 0 0 Z " fill="#36A67E" transform="translate(266,125)"/>
<path d="M0 0 C2.25 -0.25 2.25 -0.25 5 0 C6.33333333 1.33333333 7.66666667 2.66666667 9 4 C11.75024467 4.66005872 14.18000966 5 17 5 C17 5.66 17 6.32 17 7 C9.61538462 7.36923077 9.61538462 7.36923077 6.8125 5.6875 C5.9153125 4.8521875 5.9153125 4.8521875 5 4 C4.0925 3.46375 3.185 2.9275 2.25 2.375 C1.5075 1.92125 0.765 1.4675 0 1 C0 0.67 0 0.34 0 0 Z " fill="#308667" transform="translate(239,412)"/>
<path d="M0 0 C0.66 0.66 1.32 1.32 2 2 C-0.64 1.67 -3.28 1.34 -6 1 C-6 1.66 -6 2.32 -6 3 C-8.31 3.33 -10.62 3.66 -13 4 C-8.68835245 -0.60900256 -6.20296336 -1.45175738 0 0 Z " fill="#347C65" transform="translate(269,384)"/>
<path d="M0 0 C0.66 0 1.32 0 2 0 C2.04898438 0.58007812 2.09796875 1.16015625 2.1484375 1.7578125 C2.59649405 6.43923092 3.298021 10.57485459 5 15 C2.78929659 13.34197245 1.44182319 12.30185808 0 10 C-0.43788102 6.62574035 -0.29562191 3.38322853 0 0 Z " fill="#3EA27F" transform="translate(205,209)"/>
<path d="M0 0 C-2.10084209 1.00696568 -4.20579489 2.0053589 -6.3125 3 C-7.48425781 3.556875 -8.65601563 4.11375 -9.86328125 4.6875 C-13 6 -13 6 -16 6 C-15.67 5.01 -15.34 4.02 -15 3 C-12.3828125 1.796875 -12.3828125 1.796875 -9.125 0.75 C-7.52011719 0.21632813 -7.52011719 0.21632813 -5.8828125 -0.328125 C-3 -1 -3 -1 0 0 Z " fill="#347A61" transform="translate(304,339)"/>
<path d="M0 0 C3.58806317 3.38872633 6.45684799 6.76141332 9 11 C9 11.66 9 12.32 9 13 C8.01 13 7.02 13 6 13 C4.99491199 11.21118264 3.99607264 9.41885304 3 7.625 C2.1646875 6.12839844 2.1646875 6.12839844 1.3125 4.6015625 C0 2 0 2 0 0 Z " fill="#3CA07A" transform="translate(354,218)"/>
<path d="M0 0 C0.66 0 1.32 0 2 0 C2 5.61 2 11.22 2 17 C0.02 17.99 0.02 17.99 -2 19 C-2.33 18.01 -2.66 17.02 -3 16 C-2.34 16 -1.68 16 -1 16 C0.14077657 12.57767028 0.09815117 9.91326783 0.0625 6.3125 C0.04896484 4.54326172 0.04896484 4.54326172 0.03515625 2.73828125 C0.02355469 1.83464844 0.01195312 0.93101562 0 0 Z " fill="#2D8265" transform="translate(174,207)"/>
<path d="M0 0 C0.93826619 3.06687009 1.01788333 5.45007796 0.625 8.625 C0.53476562 9.40101563 0.44453125 10.17703125 0.3515625 10.9765625 C0 13 0 13 -1 15 C-2.84398144 11.8936005 -3.2039901 9.94718528 -2.75 6.375 C-2.66234375 5.59898437 -2.5746875 4.82296875 -2.484375 4.0234375 C-2 2 -2 2 0 0 Z " fill="#3DA07B" transform="translate(287,161)"/>
<path d="M0 0 C2.3125 0.1875 2.3125 0.1875 4 1 C2.4198632 3.15473199 0.89353366 5.10646634 -1 7 C-2.32 6.34 -3.64 5.68 -5 5 C-2.75 2.4375 -2.75 2.4375 0 0 Z " fill="#36AB80" transform="translate(239,79)"/>
<path d="M0 0 C0.99 0.33 1.98 0.66 3 1 C2.01 2.485 2.01 2.485 1 4 C2.32 5.32 3.64 6.64 5 8 C2.6875 8.3125 2.6875 8.3125 0 8 C-1.8125 5.5 -1.8125 5.5 -3 3 C-2.01 2.67 -1.02 2.34 0 2 C0 1.34 0 0.68 0 0 Z " fill="#2E8265" transform="translate(285,344)"/>
<path d="M0 0 C4.51045941 2.46025059 8.18504423 5.60282037 12 9 C9.16032769 9 6.76264289 8.59732819 4 8 C3.896875 7.38125 3.79375 6.7625 3.6875 6.125 C3.12474627 3.63473516 3.12474627 3.63473516 0 2 C0 1.34 0 0.68 0 0 Z " fill="#38A77E" transform="translate(284,99)"/>
<path d="M0 0 C1.65 0 3.3 0 5 0 C5 0.99 5 1.98 5 3 C8.3 3.33 11.6 3.66 15 4 C15 4.33 15 4.66 15 5 C13.2507786 5.08142927 11.50045458 5.13938541 9.75 5.1875 C8.77546875 5.22230469 7.8009375 5.25710937 6.796875 5.29296875 C3.60293349 4.95840784 2.27119696 4.23334367 0 2 C0 1.34 0 0.68 0 0 Z " fill="#3BA57E" transform="translate(287,176)"/>
<path d="M0 0 C3.36720387 1.39332574 4.9859524 2.9789286 7 6 C5.1875 6.6875 5.1875 6.6875 3 7 C1.25 5.8125 1.25 5.8125 0 4 C0 2.68 0 1.36 0 0 Z " fill="#2B8569" transform="translate(208,384)"/>
<path d="M0 0 C4.29 0 8.58 0 13 0 C9.99559979 2.00293347 8.29006055 2.49271626 4.8125 3.125 C3.46091797 3.37636719 3.46091797 3.37636719 2.08203125 3.6328125 C1.39496094 3.75398438 0.70789063 3.87515625 0 4 C0 2.68 0 1.36 0 0 Z " fill="#278867" transform="translate(243,360)"/>
<path d="M0 0 C0 3 0 3 -1.375 4.4375 C-1.91125 4.953125 -2.4475 5.46875 -3 6 C-3.4640625 7.051875 -3.4640625 7.051875 -3.9375 8.125 C-5 10 -5 10 -7.125 10.75 C-8.053125 10.87375 -8.053125 10.87375 -9 11 C-6.62245212 6.50907623 -3.6393937 3.47764287 0 0 Z " fill="#307D64" transform="translate(223,264)"/>
<path d="M0 0 C0.928125 0.2784375 0.928125 0.2784375 1.875 0.5625 C4.04160178 1.23686176 4.04160178 1.23686176 6 0 C8.00800456 0.28112064 10.01014051 0.61067967 12 1 C12 1.66 12 2.32 12 3 C8.04 3 4.08 3 0 3 C0 2.01 0 1.02 0 0 Z " fill="#2DB585" transform="translate(292,177)"/>
<path d="M0 0 C0.33 0 0.66 0 1 0 C1 1.65 1 3.3 1 5 C1.66 5 2.32 5 3 5 C3.309375 6.11375 3.61875 7.2275 3.9375 8.375 C4.82326483 11.7945155 4.82326483 11.7945155 6 14 C3.71216703 13.08486681 2.26550272 12.34515354 0.75 10.375 C-0.35953628 6.86146845 -0.12256679 3.67700382 0 0 Z " fill="#3E9F7D" transform="translate(192,161)"/>
<path d="M0 0 C1.32 0 2.64 0 4 0 C4.144375 0.598125 4.28875 1.19625 4.4375 1.8125 C4.8872439 3.56150404 5.42892341 5.28677023 6 7 C3.5625 6.3125 3.5625 6.3125 1 5 C0.1875 2.375 0.1875 2.375 0 0 Z " fill="#2AA97A" transform="translate(104,160)"/>
<path d="M0 0 C1.65 0 3.3 0 5 0 C2 3 -1 6 -4 9 C-4.66 8.67 -5.32 8.34 -6 8 C-5.1875 6.0625 -5.1875 6.0625 -4 4 C-3.01 3.67 -2.02 3.34 -1 3 C-0.67 2.01 -0.34 1.02 0 0 Z " fill="#3A9F7A" transform="translate(232,114)"/>
<path d="M0 0 C2.99220268 1.36370299 5.29026529 2.94908083 7.75 5.125 C8.67039062 5.93324219 8.67039062 5.93324219 9.609375 6.7578125 C10.06828125 7.16773437 10.5271875 7.57765625 11 8 C6.92394904 8 4.2161819 6.44727466 1 4 C0.0625 1.75 0.0625 1.75 0 0 Z " fill="#36A07C" transform="translate(265,83)"/>
<path d="M0 0 C-1.41328129 0.81837442 -2.83078346 1.62946219 -4.25 2.4375 C-5.43335938 3.11619141 -5.43335938 3.11619141 -6.640625 3.80859375 C-8.78833468 4.89311602 -10.65205061 5.53148716 -13 6 C-12 3 -12 3 -9.78515625 1.796875 C-8.43744141 1.27867187 -8.43744141 1.27867187 -7.0625 0.75 C-6.16660156 0.39421875 -5.27070313 0.0384375 -4.34765625 -0.328125 C-2 -1 -2 -1 0 0 Z " fill="#2B775D" transform="translate(278,325)"/>
<path d="M0 0 C1.3921875 0.2784375 1.3921875 0.2784375 2.8125 0.5625 C6.01343771 1.24123881 6.01343771 1.24123881 9 0 C9.33 0.66 9.66 1.32 10 2 C8.68 2.33 7.36 2.66 6 3 C6.33 3.99 6.66 4.98 7 6 C3.63279613 4.60667426 2.0140476 3.0210714 0 0 Z " fill="#34AB7D" transform="translate(255,105)"/>
<path d="M0 0 C0.66 0.66 1.32 1.32 2 2 C1.67 2.66 1.34 3.32 1 4 C3.31 4 5.62 4 8 4 C8 4.99 8 5.98 8 7 C5.125 7.125 5.125 7.125 2 7 C0 5 0 5 -0.125 2.375 C-0.08375 1.59125 -0.0425 0.8075 0 0 Z " fill="#2B926D" transform="translate(175,312)"/>
<path d="M0 0 C0.33 0.66 0.66 1.32 1 2 C0.0625 4.625 0.0625 4.625 -1 7 C-0.34 7.33 0.32 7.66 1 8 C-0.32 8.33 -1.64 8.66 -3 9 C-3 8.01 -3 7.02 -3 6 C-3.99 6.66 -4.98 7.32 -6 8 C-4.55746343 4.63408134 -2.66735273 2.48952921 0 0 Z " fill="#298161" transform="translate(213,275)"/>
<path d="M0 0 C1.65 0 3.3 0 5 0 C5.33 0.66 5.66 1.32 6 2 C5.01 2 4.02 2 3 2 C2.67 3.65 2.34 5.3 2 7 C0.68 6.67 -0.64 6.34 -2 6 C-1.01 4.68 -0.02 3.36 1 2 C0.67 1.34 0.34 0.68 0 0 Z " fill="#36AF81" transform="translate(255,224)"/>
<path d="M0 0 C2.4375 0.375 2.4375 0.375 5 1 C5.33 1.66 5.66 2.32 6 3 C6.99 3.33 7.98 3.66 9 4 C9.6875 6.0625 9.6875 6.0625 10 8 C6.05205855 6.32971708 3.18203882 3.8204435 0 1 C0 0.67 0 0.34 0 0 Z " fill="#297963" transform="translate(219,396)"/>
<path d="M0 0 C2.3125 -0.3125 2.3125 -0.3125 5 0 C6.6875 2.4375 6.6875 2.4375 8 5 C8.66 5.33 9.32 5.66 10 6 C9.67 6.66 9.34 7.32 9 8 C7.49712782 6.85793642 5.99776716 5.71125043 4.5 4.5625 C3.6646875 3.92441406 2.829375 3.28632813 1.96875 2.62890625 C1.3190625 2.09136719 0.669375 1.55382812 0 1 C0 0.67 0 0.34 0 0 Z " fill="#317A62" transform="translate(272,368)"/>
<path d="M0 0 C0.33 1.32 0.66 2.64 1 4 C-0.32 4.99 -1.64 5.98 -3 7 C-3 6.01 -3 5.02 -3 4 C-3.66 4 -4.32 4 -5 4 C-5 3.34 -5 2.68 -5 2 C-3.35 1.34 -1.7 0.68 0 0 Z " fill="#2FAC7E" transform="translate(265,249)"/>
<path d="M0 0 C0.99 0 1.98 0 3 0 C3 0.66 3 1.32 3 2 C3.99 2.33 4.98 2.66 6 3 C3.35261084 4.4606285 2.10551666 5 -1 5 C-0.67 3.35 -0.34 1.7 0 0 Z " fill="#28B479" transform="translate(253,152)"/>
<path d="M0 0 C0 3.58912412 -0.66436554 4.10857029 -3 6.6875 C-3.556875 7.31011719 -4.11375 7.93273437 -4.6875 8.57421875 C-5.120625 9.04472656 -5.55375 9.51523437 -6 10 C-6.33 9.01 -6.66 8.02 -7 7 C-2.88888889 1.44444444 -2.88888889 1.44444444 0 0 Z " fill="#327C64" transform="translate(260,257)"/>
<path d="M0 0 C0.33 0.66 0.66 1.32 1 2 C-0.25 5.0625 -0.25 5.0625 -2 8 C-2.99 8.33 -3.98 8.66 -5 9 C-3.90931332 5.22454612 -3.0916909 2.52956528 0 0 Z " fill="#258967" transform="translate(240,245)"/>
<path d="M0 0 C0.66 0 1.32 0 2 0 C2 0.66 2 1.32 2 2 C3.65 2.33 5.3 2.66 7 3 C6.67 3.99 6.34 4.98 6 6 C5.01 5.34 4.02 4.68 3 4 C2.67 4.99 2.34 5.98 2 7 C1.34 6.67 0.68 6.34 0 6 C0 4.02 0 2.04 0 0 Z " fill="#1C9E6F" transform="translate(120,174)"/>
<path d="M0 0 C0.33 0 0.66 0 1 0 C0.67 3.63 0.34 7.26 0 11 C-0.33 11 -0.66 11 -1 11 C-1 9.02 -1 7.04 -1 5 C-1.66 4.67 -2.32 4.34 -3 4 C-2.02727325 2.64664105 -1.0260734 1.31337396 0 0 Z " fill="#2ABB86" transform="translate(196,161)"/>
<path d="M0 0 C0.66 0 1.32 0 2 0 C2.66 0.99 3.32 1.98 4 3 C6.05003955 4.19232613 6.05003955 4.19232613 8 5 C5.6875 5.6875 5.6875 5.6875 3 6 C1.1875 4.75 1.1875 4.75 0 3 C0 2.01 0 1.02 0 0 Z " fill="#317E62" transform="translate(153,377)"/>
<path d="M0 0 C0.33 0 0.66 0 1 0 C1.05399736 1.45792884 1.09279177 2.91642712 1.125 4.375 C1.14820313 5.18710937 1.17140625 5.99921875 1.1953125 6.8359375 C1 9 1 9 -1 11 C-1.99 11 -2.98 11 -4 11 C-4 10.34 -4 9.68 -4 9 C-2.68 8.67 -1.36 8.34 0 8 C0 5.36 0 2.72 0 0 Z " fill="#317B66" transform="translate(347,372)"/>
<path d="M0 0 C0.33 1.32 0.66 2.64 1 4 C-1.97 3.505 -1.97 3.505 -5 3 C-5 3.66 -5 4.32 -5 5 C-5.66 4.67 -6.32 4.34 -7 4 C-4.83989616 0.75984424 -3.8842653 0 0 0 Z " fill="#2EB986" transform="translate(251,74)"/>
<path d="M0 0 C2.97 0 5.94 0 9 0 C8.67 1.32 8.34 2.64 8 4 C7.01 3.34 6.02 2.68 5 2 C3.34450469 1.61500109 1.6777567 1.27206865 0 1 C0 0.67 0 0.34 0 0 Z " fill="#357B64" transform="translate(199,383)"/>
<path d="M0 0 C0.66 0.33 1.32 0.66 2 1 C1.6875 3.875 1.6875 3.875 1 7 C0.01 7.66 -0.98 8.32 -2 9 C-1.7215625 7.824375 -1.7215625 7.824375 -1.4375 6.625 C-0.74037734 4.02910225 -0.74037734 4.02910225 -2 2 C-1.34 2 -0.68 2 0 2 C0 1.34 0 0.68 0 0 Z " fill="#33B684" transform="translate(290,218)"/>
</svg>
