<svg width="16" height="16" viewBox="0 0 16 16" fill="none" xmlns="http://www.w3.org/2000/svg">
<path fill-rule="evenodd" clip-rule="evenodd" d="M6.31444 13.5909L5.89053 13.167H4.1646C3.17244 13.167 2.88142 12.8759 2.88142 11.8838V10.1579L2.42965 9.70609L1.06998 8.34641C0.748156 8.02459 0.748157 7.5028 1.06998 7.18098L2.88142 5.36955V3.67138C2.88142 2.67923 3.17244 2.3882 4.1646 2.3882H5.86277L7.67412 0.576849C7.99595 0.255023 8.51773 0.255024 8.83956 0.576849L10.1992 1.93653L10.6509 2.3882H12.377C13.3692 2.3882 13.6602 2.67923 13.6602 3.67138V5.39747L14.084 5.8213L15.4437 7.18099C15.7655 7.50281 15.7655 8.0246 15.4437 8.34642L13.6602 10.1299V11.8838C13.6602 12.8759 13.3692 13.167 12.377 13.167H10.6231L8.83955 14.9506C8.51772 15.2724 7.99594 15.2724 7.67411 14.9506L6.31444 13.5909ZM6.39941 9.37074V10.1792H10.3805V9.29447H7.97882L10.363 6.84618V6.03009H6.52217V6.92245H8.8297L6.39941 9.37074Z" fill="#4AA567"/>
</svg>
